<svg width="90" height="90" viewBox="0 0 90 90" fill="none" xmlns="http://www.w3.org/2000/svg">
<path d="M40.773 78.3605V89.4956C40.773 89.7025 40.9388 89.8682 41.1457 89.8267C43.7537 89.6198 46.2787 89.1645 48.6794 88.378C48.8036 88.3365 48.9278 88.2123 48.9278 88.0469V60.7261C48.9278 60.5604 48.8036 60.395 48.6382 60.395C46.196 60.1051 43.6706 59.9397 41.1457 59.857C40.9388 59.857 40.773 60.0224 40.773 60.1881V70.04H36.3853V60.1881C36.3853 59.9809 36.2196 59.8155 36.0127 59.857C33.4462 59.9397 30.9626 60.1051 28.5202 60.3535C28.3546 60.3535 28.2305 60.5192 28.2305 60.6846V88.0881C28.2305 88.2538 28.3133 88.378 28.4788 88.4192C30.8798 89.123 33.405 89.6198 36.0127 89.7855C36.2196 89.7855 36.3853 89.6198 36.3853 89.4544V78.2775H40.773V78.3605Z" fill="#2B5E4A"/>
<path d="M25.9135 60.7681C22.8089 61.2234 19.7871 61.8029 16.9722 62.5896C16.8894 62.6308 16.8066 62.6723 16.7652 62.7965L13.2467 70.0819H12.6671V64.3694C12.6671 64.1213 12.4188 63.9556 12.2118 64.0383C10.142 64.7835 8.19647 65.5699 6.37508 66.4806C6.00253 66.6463 5.67139 66.8532 5.34022 67.0189C5.17463 67.1016 5.09187 67.3085 5.21604 67.4742C7.90671 72.5657 11.1769 76.995 14.9853 80.5551C15.1508 80.7205 15.4406 80.679 15.5234 80.4721L17.6345 76.2085H18.1727V83.0801C18.1727 83.2043 18.2141 83.287 18.2969 83.3697C20.615 85.1082 23.1401 86.5157 25.8307 87.592C26.0377 87.6747 26.2861 87.5093 26.2861 87.2609V61.0992C26.3275 60.8923 26.1205 60.7269 25.9135 60.7681Z" fill="#2B5E4A"/>
<path d="M68.7153 66.1079C67.8873 65.5699 65.0724 63.9971 63.3339 63.3761C63.1685 63.3345 63.0027 63.3761 62.9201 63.5414C62.299 64.8247 59.7325 70.0819 59.7325 70.0819H59.153L59.1118 62.5481C59.1118 62.3824 58.9876 62.2582 58.8634 62.217C56.4623 61.6375 53.9373 61.1407 51.3708 60.7681C51.1639 60.7269 50.957 60.8923 50.957 61.0992V87.0952C50.957 87.3436 51.2051 87.5093 51.4535 87.4267C54.1442 86.3088 56.6695 84.8602 58.9876 83.1213C59.0703 83.0386 59.1118 82.9559 59.1118 82.8317V78.3609C60.602 78.2367 62.1748 78.8162 63.0854 79.6857C64.8655 77.9056 66.7283 75.7944 68.2599 73.642C68.3842 73.5178 68.3426 73.3109 68.2184 73.1867C67.6804 72.7314 67.0182 72.2346 66.3557 71.862L68.881 66.5636C68.9637 66.3979 68.881 66.2321 68.7153 66.1079Z" fill="#2B5E4A"/>
<path d="M52.034 3.14602C52.2409 2.98044 52.1994 2.64928 51.9513 2.52509C49.0534 1.28324 45.9489 0.41395 42.7614 0C39.45 10.8041 39.4084 23.6365 38.9531 56.2972C39.2431 56.2972 39.5742 56.2972 39.8638 56.2972C40.9401 31.0876 41.2712 10.5557 52.034 3.14602Z" fill="#1D2126"/>
<path d="M46.1957 32.081C50.1696 20.0765 56.5444 14.157 66.0239 13.743C66.3135 13.743 66.4377 13.3705 66.272 13.1635C63.9539 10.4314 61.3462 8.0719 58.5313 6.08496C49.4244 9.23098 45.4089 17.096 43.1324 31.4601C42.0975 38.166 41.3111 46.5277 40.8555 56.3384C41.1454 56.3384 41.4765 56.3384 41.7664 56.3799C42.2629 48.5147 44.1257 38.3729 46.1957 32.081Z" fill="#1D2126"/>
<path d="M48.1828 41.5192C55.5097 27.2795 68.3837 25.3753 75.5037 32.4124C75.7517 32.6608 76.1659 32.4124 76.0832 32.0813C74.9241 27.5278 73.1852 23.2641 70.9087 19.4144C54.5576 14.9024 44.623 33.6128 42.7188 56.4628C43.0083 56.4628 43.3398 56.5044 43.6294 56.5044C44.54 50.2123 45.4506 46.7764 48.1828 41.5192Z" fill="#1D2126"/>
<path d="M76.831 39.8629C70.6632 32.5359 59.1555 30.6731 51.2491 40.7321C48.3927 44.3334 45.6193 49.6321 44.543 56.5452C44.8741 56.5452 45.164 56.5863 45.4951 56.5863C47.151 49.6736 51.456 46.0308 55.5127 44.8302C64.868 41.9741 74.2234 48.8042 75.051 56.7521C75.0925 57.0832 75.6305 57.0416 75.7135 56.7105C76.5826 52.9435 77.0795 48.9699 77.0795 44.8302C77.0379 43.1332 76.9553 41.4773 76.831 39.8629Z" fill="#1D2126"/>
<path d="M34.276 0.0419922C31.0887 0.455943 27.984 1.28384 25.0864 2.56708C24.838 2.69127 24.7966 3.02243 25.0036 3.18801C35.7662 10.5563 36.0976 31.0882 37.1325 56.3391C37.4221 56.3391 37.7532 56.3391 38.0431 56.3391C37.5878 23.6785 37.5878 10.8461 34.276 0.0419922Z" fill="#1D2126"/>
<path d="M33.9013 31.5011C31.6661 17.137 27.6094 9.27199 18.5025 6.12598C15.6877 8.11292 13.0798 10.4724 10.7617 13.2045C10.5961 13.4115 10.7203 13.7426 11.01 13.784C20.4895 14.1566 26.9057 20.0761 30.8796 32.0806C32.9494 38.3313 34.7708 48.5146 35.3088 56.3795C35.5987 56.3795 35.9298 56.3379 36.2194 56.3379C35.7229 46.5688 34.9777 38.2071 33.9013 31.5011Z" fill="#1D2126"/>
<path d="M6.16951 19.4145C3.89277 23.2228 2.1542 27.4865 0.995143 32.0813C0.912353 32.4125 1.3263 32.6608 1.57467 32.4125C8.736 25.4167 21.5684 27.3209 28.8954 41.5195C31.586 46.7352 32.5381 50.1708 33.4488 56.4629C33.7387 56.4629 34.0698 56.4217 34.3594 56.4217C32.4553 33.6128 22.5205 14.9024 6.16951 19.4145Z" fill="#1D2126"/>
<path d="M25.8305 40.7321C17.924 30.6731 6.37482 32.5359 0.24837 39.8629C0.08279 41.4773 0 43.1332 0 44.8302C0 48.9284 0.455344 52.9023 1.36603 56.7105C1.44882 57.0416 1.98696 57.0832 2.02835 56.7521C3.14602 48.9284 11.5492 42.3464 21.5668 44.8302C25.6649 45.8239 29.8872 49.6736 31.5844 56.5863C31.9155 56.5452 32.2053 56.5452 32.5365 56.5452C31.4602 49.6321 28.6867 44.3334 25.8305 40.7321Z" fill="#1D2126"/>
</svg>
