<svg width="90" height="90" viewBox="0 0 90 90" fill="none" xmlns="http://www.w3.org/2000/svg">
<g clip-path="url(#clip0_475_6055)">
<path fill-rule="evenodd" clip-rule="evenodd" d="M44.9493 89.4695C69.2762 89.4695 89.117 69.6284 89.117 45.3015C89.117 20.9747 69.2762 1.13379 44.9493 1.13379C20.6225 1.13379 0.78125 20.9747 0.78125 45.3015C0.78125 69.6284 20.6225 89.4695 44.9493 89.4695Z" fill="white"/>
<path fill-rule="evenodd" clip-rule="evenodd" d="M44.9494 86.8839C67.8521 86.8839 86.5313 68.2043 86.5313 45.3017C86.5313 22.399 67.8521 3.71973 44.9494 3.71973C22.0468 3.71973 3.36719 22.399 3.36719 45.3017C3.36719 68.2043 22.0468 86.8839 44.9494 86.8839Z" fill="#009A3C"/>
<path fill-rule="evenodd" clip-rule="evenodd" d="M68.3797 34.4658L68.2183 34.4642L68.0537 34.4627L67.8854 34.4628L67.712 34.4659L67.533 34.472L67.3471 34.4827L67.1547 34.4987L66.9554 34.5217L66.7497 34.5531L66.538 34.5943L66.3222 34.6463L66.1034 34.7101L65.8835 34.7859L65.6642 34.8742L65.4468 34.9745L65.2331 35.0863L65.0235 35.2091L64.8186 35.3419L64.6186 35.4843L64.4232 35.6356L64.2315 35.7958L64.0428 35.9646L63.9796 36.0249V23.9824H47.9753L47.7954 23.9854L47.5969 23.9962L47.3998 24.0131L47.2045 24.0366L47.0112 24.0666L46.8195 24.1031L46.6301 24.1458L46.443 24.1947L46.2588 24.2495L46.0769 24.3104L45.8977 24.3769L45.7216 24.4492L45.5484 24.527L45.3787 24.6101L45.2119 24.6986L45.0485 24.7921L44.9445 24.8563L44.8805 24.8165L44.7204 24.7236L44.5568 24.6357L44.39 24.5529L44.2202 24.4753L44.0475 24.403L43.8721 24.3363L43.6936 24.275L43.513 24.2195L43.3298 24.1696L43.1441 24.1258L42.9564 24.0878L42.7935 24.0605L42.3064 23.9829H25.9181V36.0264L25.854 35.9652L25.6651 35.7962L25.4735 35.636L25.278 35.4847L25.078 35.3424L24.8731 35.2095L24.6637 35.0867L24.4498 34.9749L24.2324 34.8747L24.0129 34.7864L23.7931 34.7106L23.5743 34.6468L23.3585 34.5948L23.1469 34.5536L22.9411 34.5222L22.7421 34.4991L22.5494 34.4831L22.3636 34.4725L22.1846 34.4664L22.0113 34.4633L21.8429 34.4631L21.6783 34.4647L21.5169 34.4662L21.3573 34.4692L21.1985 34.4723L21.0393 34.4738L20.8735 34.4746H8.83203L44.9483 78.0706L81.0645 34.4746H69.0231L68.8574 34.4738L68.6983 34.4723L68.5392 34.4692L68.3797 34.4658Z" fill="white"/>
<path fill-rule="evenodd" clip-rule="evenodd" d="M44.9492 62.4121L25.6824 38.8936C25.5749 38.7623 25.4675 38.6311 25.36 38.4999C23.5435 36.2825 22.8053 36.5623 20.8787 36.5623H20.4373H13.2773L44.9492 74.7934L76.6209 36.5623H69.4609H69.0196C67.0929 36.5623 66.3548 36.2825 64.5383 38.4999C64.4308 38.6311 64.3234 38.7623 64.2158 38.8936L44.9492 62.4121ZM42.8159 26.1923L42.9327 26.224L43.0479 26.2594L43.1615 26.2985L43.2733 26.341L43.3834 26.3871L43.4917 26.4365L43.598 26.4893L43.7026 26.5454L43.8047 26.6048L43.9051 26.6672L44.003 26.7328L44.0988 26.8013L44.1924 26.8726L44.2836 26.9471L44.3722 27.0243L44.4582 27.1041L44.5418 27.1866L44.6226 27.2718L44.7009 27.3596L44.7763 27.4497L44.8488 27.5423L44.9183 27.6372L44.9497 27.6831L44.9844 27.6323L45.0551 27.5359L45.1288 27.4418L45.2054 27.3501L45.285 27.261L45.3672 27.1745L45.4522 27.0908L45.5399 27.0098L45.6302 26.9315L45.7229 26.8562L45.8182 26.7839L45.9158 26.7146L46.0157 26.6484L46.1177 26.5854L46.2221 26.5256L46.3284 26.4692L46.4367 26.4161L46.5471 26.3667L46.6593 26.3206L46.7733 26.2782L46.889 26.2394L47.0063 26.2047L47.1253 26.1736L47.2458 26.1462L47.3676 26.1231L47.4908 26.104L47.6154 26.0887L47.741 26.078L47.8679 26.0719L47.994 26.0704H54.458V33.0977H58.0112V26.0704H61.8909V38.2059L58.0112 42.9419V36.9775H54.458V47.279L50.5783 52.015V29.9493H47.8125V29.9416L46.8896 29.9493V53.5779H49.2975L44.9497 58.8852L40.6019 53.5779H43.0099V29.9451L42.1414 29.9482L31.8883 29.9491V33.0967H39.4568V52.1077L28.0085 38.1263V26.0693H42.1414V26.0866L42.2113 26.0912L42.3349 26.1034L42.457 26.1197L42.578 26.14L42.6977 26.1641L42.8159 26.1923ZM35.5771 41.2955V36.9766H32.0689L35.5771 41.2955Z" fill="#E63114"/>
</g>
<defs>
<clipPath id="clip0_475_6055">
<rect width="90" height="90" fill="white"/>
</clipPath>
</defs>
</svg>
