<svg width="252" height="39" viewBox="0 0 252 39" fill="none" xmlns="http://www.w3.org/2000/svg">
<g clip-path="url(#clip0_475_6127)">
<path d="M39.3721 0H0V7.79909H39.3721V0Z" fill="#FCB53B"/>
<path d="M39.3721 15.5986H0V23.3979H39.3721V15.5986Z" fill="#F57F29"/>
<path d="M39.3721 31.1965H0V38.9958H39.3721V31.1965Z" fill="#E32213"/>
<path d="M192.371 7.80696L198.59 23.3899H186.134L192.371 7.80696ZM186.337 0.00488281L171.223 39.0005H180.249L183.205 31.184L201.537 31.1916L204.492 39.0005H213.471L197.477 0.00488281H186.337Z" fill="black"/>
<path d="M55.1172 0.00488281V39.0005H87.4199V31.2063L63.0136 31.1927V23.3984H87.4199V15.5842H63.0136V7.80969L87.4199 7.78356V0.00488281H55.1172Z" fill="black"/>
<mask id="mask0_475_6127" style="mask-type:luminance" maskUnits="userSpaceOnUse" x="0" y="0" width="252" height="39">
<path d="M252 0H0V39H252V0Z" fill="white"/>
</mask>
<g mask="url(#mask0_475_6127)">
<path d="M218.93 38.9687H234.196H240.255C246.613 38.9687 252 34.6873 252 27.394C252 24.388 250.836 21.4386 247.202 19.4864C251.408 17.0621 252 14.5846 252 11.5787C252 5.23446 246.613 0.00390625 240.255 0.00390625H234.196H218.93V7.93443H239.888C242.027 7.93443 243.761 9.65186 243.761 11.7705C243.761 13.8891 242.027 15.6066 239.888 15.6066H235.704H222.856V23.3658H235.704H239.888C242.027 23.3658 243.761 25.0834 243.761 27.2019C243.761 29.3206 242.027 31.0382 239.888 31.0382H218.93L218.93 38.9687Z" fill="black"/>
</g>
<mask id="mask1_475_6127" style="mask-type:luminance" maskUnits="userSpaceOnUse" x="0" y="0" width="252" height="39">
<path d="M252 0H0V39H252V0Z" fill="white"/>
</mask>
<g mask="url(#mask1_475_6127)">
<path d="M160.336 0.00488281H154.277H138.617V39.0005H146.496V23.3668H155.785H160.336C166.85 23.3668 172.13 18.137 172.13 11.6858C172.13 5.23452 166.85 0.00488281 160.336 0.00488281ZM159.969 15.6076H146.485V7.9354H159.969C162.108 7.9354 163.842 9.65283 163.842 11.7714C163.842 13.8901 162.108 15.6076 159.969 15.6076Z" fill="black"/>
</g>
<mask id="mask2_475_6127" style="mask-type:luminance" maskUnits="userSpaceOnUse" x="0" y="0" width="252" height="39">
<path d="M252 0H0V39H252V0Z" fill="white"/>
</mask>
<g mask="url(#mask2_475_6127)">
<path d="M125.369 19.4862C129.575 17.062 130.167 14.5846 130.167 11.5787C130.167 5.23446 124.78 0.00390625 118.421 0.00390625L118.422 0.00403625C118.42 0.00403625 118.418 0.00390625 118.417 0.00390625H96.8945V38.9685H118.81C125.169 38.9685 130.556 34.6871 130.556 27.3939C130.556 24.388 129.002 21.4388 125.369 19.4862ZM104.762 7.93456H118.05C120.189 7.93456 121.923 9.65199 121.923 11.7706C121.923 13.8892 120.189 15.6068 118.05 15.6068H114.062H104.762V7.93456ZM118.444 31.0382H104.762V23.3658H118.444C120.583 23.3658 122.317 25.0834 122.317 27.202C122.317 29.3206 120.583 31.0382 118.444 31.0382Z" fill="black"/>
</g>
</g>
<defs>
<clipPath id="clip0_475_6127">
<rect width="252" height="39" fill="white"/>
</clipPath>
</defs>
</svg>
