<svg width="121" height="74" viewBox="0 0 121 74" fill="none" xmlns="http://www.w3.org/2000/svg">
<path d="M14.7396 41.9173C14.7396 36.6664 14.7396 31.4154 14.7396 26.1644C14.7396 24.7946 14.4674 24.5207 13.0834 24.5207C9.11311 24.5207 5.14279 24.4978 1.17248 24.5435C0.219601 24.5663 -0.0526498 24.2467 -0.0299623 23.3106C0.0381003 20.8678 0.0154128 18.4478 -0.0299623 16.005C-0.0526498 15.1602 0.242288 14.8634 1.08173 14.8634C4.55292 14.9091 8.0468 14.9091 11.518 14.8634C12.3121 14.8406 12.607 15.2059 12.7204 15.868C13.7414 21.6212 17.1218 25.1599 22.7029 26.621C24.5179 27.1005 24.5179 27.0776 24.5179 29.0639C24.5179 38.3786 24.5179 47.6934 24.5179 57.0082C24.5179 58.5835 24.6314 58.7204 26.1968 58.7204C30.0991 58.7204 33.9786 58.7433 37.8809 58.6976C38.743 58.6976 39.0833 58.9031 39.0607 59.8391C38.9926 62.3505 39.0153 64.8618 39.0607 67.3731C39.0607 68.1037 38.8338 68.3777 38.0851 68.3548C33.4341 68.332 28.7832 68.3777 24.1323 68.332C20.9333 68.3092 16.8496 65.1357 15.6244 61.9395C14.9892 60.2501 14.6942 58.5378 14.7169 56.757C14.7396 51.8029 14.7396 46.8487 14.7396 41.9173Z" fill="white"/>
<path d="M31.0293 24.5213C28.9874 24.5213 26.9455 24.4985 24.9037 24.5213C20.1847 24.5898 15.4883 20.5032 14.9438 15.549C14.422 10.6633 14.8531 5.75479 14.717 0.869111C14.6943 0.207032 15.0346 0.0243897 15.6245 0.0243897C18.2789 0.04722 20.9107 0.04722 23.5651 0.0243897C24.4045 0.00155945 24.5633 0.389674 24.5633 1.14307C24.5407 5.18404 24.5407 9.20217 24.5633 13.2431C24.5633 14.7271 24.7222 14.8869 26.1968 14.8869C30.1218 14.8869 34.0694 14.9097 37.9944 14.8641C38.9246 14.8412 39.1287 15.1609 39.1061 16.0284C39.0607 18.5398 39.0607 21.0511 39.1061 23.5624C39.1287 24.3843 38.8565 24.5898 38.0851 24.567C35.7256 24.4985 33.3661 24.5213 31.0293 24.5213Z" fill="#E0E0E0"/>
<path d="M68.1021 31.2323C68.1021 33.9035 68.0794 36.0723 68.1248 38.2412C68.1475 39.0403 67.966 39.4056 67.0585 39.3827C64.5629 39.3371 62.0673 39.3371 59.5716 39.3827C58.6641 39.4056 58.5053 39.0403 58.5053 38.2412C58.528 34.3601 58.528 30.4789 58.528 26.5978C58.528 24.9768 58.0969 24.5202 56.4407 24.5202C52.5839 24.5202 48.727 24.4974 44.8701 24.543C44.0307 24.543 43.7357 24.3147 43.7584 23.4472C43.8038 20.9358 43.8038 18.4245 43.7584 15.9132C43.7357 15.1141 44.0307 14.863 44.802 14.8858C49.1807 14.9086 53.5821 14.726 57.9608 14.9543C62.9521 15.2054 66.8543 18.5158 67.8526 23.5842C68.3971 26.2553 67.9433 28.9949 68.1021 31.2323Z" fill="white"/>
<path d="M75.6775 14.864C77.7648 14.864 79.8294 14.8869 81.9166 14.8412C82.6653 14.8184 82.8922 15.0695 82.8695 15.8229C82.8241 18.4027 82.8241 21.0054 82.8695 23.5852C82.8922 24.3386 82.6426 24.5669 81.9166 24.5441C78.4454 24.4984 74.9515 24.4756 71.4803 24.5669C70.5048 24.5897 70.2098 24.156 70.1191 23.4026C69.8015 21.0739 68.7805 19.0648 67.3058 17.2612C65.4001 14.9325 62.9725 13.4942 60.0685 12.9235C58.9341 12.6952 58.4577 12.3984 58.4804 11.1199C58.5711 7.76382 58.5484 4.4306 58.5031 1.07455C58.4804 0.206994 58.7526 -0.0213083 59.5921 0.00152196C62.0196 0.0471825 64.4245 0.0700128 66.8521 0.00152196C67.8276 -0.0213083 68.168 0.252655 68.1453 1.28002C68.0999 5.27532 68.1226 9.27062 68.1226 13.2659C68.1226 14.6814 68.2814 14.864 69.688 14.864C71.6845 14.864 73.681 14.864 75.6775 14.864Z" fill="#E0E0E0"/>
<path d="M67.1932 56.8709C68.2822 58.1037 68.9401 59.3137 68.5771 60.9347C68.1687 62.7611 67.3066 63.3319 65.7185 63.7428C64.4026 64.0853 62.996 64.2679 61.612 63.8341C61.1356 63.6972 60.4777 63.6743 60.4096 64.4506C60.3415 65.1583 60.455 65.8204 61.3171 66.0259C62.6103 66.3455 63.9262 66.277 65.242 66.2313C66.0361 66.2085 66.8302 66.3683 67.5789 66.5738C68.9628 66.9391 69.6661 68.0578 69.6888 69.6787C69.7115 71.6421 69.0309 72.8064 67.6696 73.3544C66.263 73.9251 64.7883 73.811 63.3363 73.811C62.2927 73.811 61.2263 73.948 60.2054 73.537C57.6417 72.5325 57.2107 69.77 59.3433 67.9893C59.797 67.624 60.1147 67.3272 59.3887 66.8021C58.6627 66.277 58.7761 64.9757 59.5248 64.1994C59.9332 63.7657 60.1827 63.583 59.4567 63.0807C58.1635 62.1675 57.9367 60.6607 58.1182 59.2224C58.4812 56.3915 59.8878 55.2956 62.7691 55.2956C64.8563 55.2956 66.9209 55.2956 69.0082 55.2956C69.4846 55.2956 69.9384 55.2728 69.9157 55.9805C69.893 56.5969 69.53 56.7111 69.0082 56.7339C68.4637 56.7111 67.8965 56.5969 67.1932 56.8709ZM63.7447 56.7111C63.1321 56.7111 62.5422 56.7111 61.9297 56.7111C60.7953 56.7339 60.0693 57.3047 59.9332 58.2864C59.5928 60.5238 60.0693 61.9849 61.2263 62.3502C61.2717 62.3502 61.2944 62.3502 61.3398 62.373C62.3607 62.7383 63.427 62.647 64.4707 62.5556C65.968 62.4187 66.7848 61.8023 66.8755 60.7749C66.9436 59.9758 66.9663 59.1768 66.8755 58.3777C66.6713 56.7796 66.5125 56.6883 64.879 56.6883C64.516 56.7111 64.1303 56.7111 63.7447 56.7111ZM63.9262 72.4183C64.516 72.327 65.242 72.464 66.0134 72.2357C67.6469 71.7334 68.0326 71.2083 67.8284 69.1993C67.7377 68.2404 66.8755 67.6696 65.4462 67.6696C64.3799 67.6696 63.3136 67.761 62.27 67.6468C60.1147 67.3957 59.9332 67.487 59.9332 69.6559C59.9332 69.9527 59.9332 70.2723 59.9332 70.5691C59.9332 71.4366 60.3642 71.9389 61.2037 72.19C62.0431 72.4412 62.9052 72.4183 63.9262 72.4183Z" fill="white"/>
<path d="M110.479 64.3372C110.479 61.6432 110.479 58.9493 110.479 56.2553C110.479 55.8672 110.365 55.3649 111.001 55.3193C111.5 55.2736 111.817 55.3421 111.908 56.0042C112.022 56.8261 112.453 56.301 112.748 56.0727C114.653 54.5202 117.217 54.6343 119.032 55.7074C120.098 56.3238 120.439 57.4196 120.643 58.447C121.142 61.0268 121.142 63.6295 120.461 66.1865C120.053 67.7161 118.533 68.7891 116.922 68.8576C115.357 68.9261 113.859 68.8348 112.589 67.7389C112.022 67.2367 111.886 67.6705 111.886 68.1727C111.886 69.6567 111.886 71.1407 111.886 72.6246C111.886 73.1041 112.022 73.652 111.228 73.6748C110.365 73.6977 110.479 73.1269 110.479 72.6018C110.479 69.7937 110.479 67.054 110.479 64.3372ZM111.886 61.8944C111.886 63.1044 111.931 64.3372 111.863 65.5472C111.817 66.2778 112.158 66.6659 112.77 66.9399C113.882 67.4422 115.039 67.4193 116.196 67.4193C118.011 67.3965 119.032 66.4833 119.077 64.6797C119.123 62.8533 119.123 61.0268 119.077 59.2004C119.032 57.6251 118.193 56.5749 116.922 56.5064C116.015 56.4608 115.107 56.4379 114.2 56.5064C112.294 56.6662 111.863 57.1685 111.863 59.0406C111.886 59.9766 111.886 60.9355 111.886 61.8944Z" fill="white"/>
<path d="M81.9148 61.8485C81.8467 60.433 81.8921 59.086 82.3232 57.7847C82.6862 56.6888 83.2534 55.8213 84.3651 55.4103C86.2481 54.6798 88.1766 54.7026 90.0596 55.2734C92.1242 55.9126 92.578 57.7619 92.7595 59.5654C92.9636 61.6658 93.0771 63.7891 92.4191 65.8666C91.7839 67.83 90.5814 68.6976 88.5169 68.8117C87.4052 68.8802 86.3162 68.8346 85.2045 68.6519C83.6618 68.4008 82.8677 67.3734 82.3912 66.0493C81.8694 64.7023 81.8014 63.264 81.9148 61.8485ZM87.3144 67.3963C87.7001 67.3963 88.0631 67.3963 88.4488 67.3963C89.7874 67.3734 90.4907 66.9168 90.7856 65.6155C91.3528 63.127 91.3075 60.6385 90.763 58.1271C90.6041 57.3737 90.2185 56.8715 89.4924 56.6888C88.0631 56.3235 86.6111 56.3235 85.1818 56.6888C84.5239 56.8715 84.1155 57.3281 83.9567 58.013C83.3668 60.5472 83.4122 63.0813 83.9113 65.6155C84.1609 66.894 85.023 67.3049 86.1801 67.3734C86.5658 67.3962 86.9288 67.3963 87.3144 67.3963Z" fill="white"/>
<path d="M106.445 61.8721C106.581 63.63 106.196 65.7533 106.672 67.8536C106.74 68.1733 106.808 68.607 106.241 68.5614C105.878 68.5157 105.311 68.9495 105.175 68.1733C104.993 67.2372 104.517 67.397 103.927 67.8308C102.475 68.9267 100.796 68.9952 99.0944 68.744C97.892 68.5614 97.0525 67.808 96.6895 66.6208C96.3946 65.6391 96.1677 64.6574 96.1677 63.63C96.1904 61.1644 96.1904 58.6759 96.1677 56.2102C96.1677 55.6623 96.2358 55.2741 96.9391 55.2513C97.6878 55.2285 97.8239 55.5709 97.8012 56.233C97.7785 58.8128 97.8012 61.4155 97.8012 63.9953C97.8012 66.7121 99.1398 67.8308 101.794 67.3514C104.789 66.8263 104.789 66.8263 104.789 63.7214C104.789 61.2785 104.789 58.8585 104.789 56.4157C104.789 55.8677 104.63 55.2741 105.56 55.2513C106.559 55.2285 106.4 55.8677 106.4 56.4613C106.445 58.1508 106.445 59.8402 106.445 61.8721Z" fill="white"/>
<path d="M73.0467 62.5109C73.0467 61.0269 73.0467 59.543 73.0467 58.059C73.0467 57.4426 73.0467 56.849 72.7971 56.2782C72.5703 55.7988 72.5249 55.4335 73.1828 55.2509C73.7046 55.1139 74.0903 54.9312 74.2718 55.6846C74.4533 56.4609 74.7709 56.4609 75.4289 55.9814C76.6313 55.1139 77.9472 54.566 79.5126 54.9997C80.1706 55.1824 80.1706 55.5248 80.0798 55.9814C79.9891 56.4837 79.6488 56.8262 79.1043 56.6207C77.9018 56.2097 76.7448 56.5294 75.5877 56.849C74.8844 57.0545 74.6348 57.3969 74.6575 58.1275C74.7029 61.2096 74.6802 64.2917 74.6802 67.3509C74.6802 67.9673 74.7936 68.5838 73.8181 68.5381C72.8879 68.5153 73.0694 67.8988 73.0694 67.3509C73.0467 65.7756 73.0467 64.1318 73.0467 62.5109Z" fill="white"/>
</svg>
