<svg width="90" height="90" viewBox="0 0 90 90" fill="none" xmlns="http://www.w3.org/2000/svg">
<path d="M3.55859 67.0548L29.4275 0L55.2963 67.0548H3.55859Z" fill="#005945"/>
<path d="M50.6992 55.3115L68.5692 8.84961L86.4391 55.3115H50.6992Z" fill="#005945"/>
<path d="M43.2148 35.7401L50.7032 15.998L58.3617 35.7401H43.2148Z" fill="#005945"/>
<path d="M13.9592 78.449C13.9592 76.0764 12.0102 74.1698 9.63764 74.1698H4.85006C4.63822 74.1698 4.46875 74.3393 4.46875 74.5511V87.6852C4.46875 87.897 4.63822 88.0665 4.85006 88.0665H6.67188C6.88372 88.0665 7.05319 87.897 7.05319 87.6852V82.6434H8.95975L10.9934 87.897C11.0358 87.9817 11.1205 88.0665 11.29 88.0665H13.366C13.705 88.0665 13.8321 87.7699 13.705 87.4733L11.6289 82.135C13.0271 81.3723 13.9592 80.0589 13.9592 78.449ZM7.05319 76.5848H9.38343C10.4426 76.5848 11.3324 77.4745 11.3324 78.4913C11.3324 79.5929 10.4003 80.525 9.38343 80.525H7.05319V76.5848Z" fill="#005945"/>
<path d="M24.1298 74.2126H16.0376C15.8257 74.2126 15.6562 74.3821 15.6562 74.594V87.728C15.6562 87.9399 15.8257 88.1093 16.0376 88.1093H17.8594C18.0712 88.1093 18.2407 87.9399 18.2407 87.728V82.6862H23.1554C23.3672 82.6862 23.5367 82.5168 23.5367 82.3049V80.6949C23.5367 80.4831 23.3672 80.3136 23.1554 80.3136H18.2407V76.5853H24.1298C24.3417 76.5853 24.5111 76.4158 24.5111 76.2039V74.5516C24.4688 74.3821 24.3417 74.2126 24.1298 74.2126Z" fill="#005945"/>
<path d="M30.9519 74.2126H26.2915C26.0796 74.2126 25.9102 74.3821 25.9102 74.594V87.728C25.9102 87.9399 26.0796 88.1093 26.2915 88.1093H28.1133C28.3251 88.1093 28.4946 87.9399 28.4946 87.728V83.0675H30.9943C33.4093 83.0675 35.4006 81.0763 35.4006 78.6189C35.4006 76.1616 33.4093 74.2126 30.9519 74.2126ZM30.7825 80.6102H28.4946V76.6276H30.7825C31.884 76.6276 32.8161 77.475 32.8161 78.5342C32.8585 79.7205 31.9264 80.6102 30.7825 80.6102Z" fill="#005945"/>
<path d="M42.1339 74.283C43.195 74.283 43.9244 75.0124 43.9244 76.0072C43.9244 76.803 43.4602 77.4661 42.7307 77.6651L44.1897 80.185C44.1897 80.185 43.9907 80.2514 43.7255 80.2514C43.3939 80.2514 43.2613 80.185 43.2613 80.185L41.8686 77.7977H40.8739V80.185C40.8739 80.185 40.7413 80.2514 40.476 80.2514C40.1444 80.2514 40.0781 80.185 40.0781 80.185V74.283H42.1339ZM40.8739 77.0682H42.0676C42.7307 77.0682 43.0623 76.6703 43.0623 76.0072C43.0623 75.344 42.7307 74.9461 42.0676 74.9461H40.8739V77.0682Z" fill="#025A44"/>
<path d="M44.918 75.942C44.918 75.942 45.0506 75.8757 45.3159 75.8757C45.5811 75.8757 45.7138 75.942 45.7138 75.942V78.9262C45.7138 79.3905 45.979 79.6557 46.5095 79.6557C46.8411 79.6557 47.239 79.4568 47.438 79.1252V75.942C47.438 75.942 47.5706 75.8757 47.8359 75.8757C48.1011 75.8757 48.2337 75.942 48.2337 75.942V80.1862C48.2337 80.1862 48.1011 80.2526 47.8359 80.2526C47.5706 80.2526 47.438 80.1862 47.438 80.1862V79.7884C47.1727 80.1199 46.7085 80.3189 46.178 80.3189C45.3822 80.3189 44.918 79.7884 44.918 79.0589V75.942Z" fill="#025A44"/>
<path d="M50.8863 75.8093C51.682 75.8093 52.0799 76.0083 52.0799 76.0083C52.0799 76.2072 52.0136 76.4725 51.881 76.6051C51.881 76.6051 51.4831 76.4725 51.0189 76.4725C50.4884 76.4725 50.1568 76.6714 50.1568 77.0693C50.1568 77.4672 50.6873 77.5998 51.2178 77.7325C51.7484 77.9314 52.3452 78.1304 52.3452 78.9925C52.3452 79.8546 51.8147 80.3188 50.7536 80.3188C49.8915 80.3188 49.361 80.0535 49.361 80.0535C49.361 79.7883 49.4273 79.5893 49.5599 79.4567C49.5599 79.4567 50.0905 79.6556 50.6873 79.6556C51.2178 79.6556 51.4831 79.4567 51.4831 79.0588C51.4831 78.5946 51.0189 78.5283 50.5547 78.3956C50.0242 78.263 49.361 77.9977 49.361 77.202C49.2947 76.3399 49.8252 75.8093 50.8863 75.8093Z" fill="#025A44"/>
<path d="M54.537 75.8093C55.3328 75.8093 55.7307 76.0083 55.7307 76.0083C55.7307 76.2072 55.6643 76.4725 55.5317 76.6051C55.5317 76.6051 55.1338 76.4725 54.6696 76.4725C54.1391 76.4725 53.8075 76.6714 53.8075 77.0693C53.8075 77.4672 54.338 77.5998 54.8685 77.7325C55.3991 77.9314 55.9959 78.1304 55.9959 78.9925C55.9959 79.8546 55.4654 80.3188 54.4043 80.3188C53.5422 80.3188 53.0117 80.0535 53.0117 80.0535C53.0117 79.7883 53.078 79.5893 53.2107 79.4567C53.2107 79.4567 53.7412 79.6556 54.338 79.6556C54.8686 79.6556 55.1338 79.4567 55.1338 79.0588C55.1338 78.5946 54.6696 78.5283 54.2054 78.3956C53.6749 78.263 53.0117 77.9977 53.0117 77.202C53.0117 76.3399 53.4759 75.8093 54.537 75.8093Z" fill="#025A44"/>
<path d="M57.7177 75.0796C57.7177 75.0796 57.585 75.1459 57.3198 75.1459C57.0545 75.1459 56.9219 75.0796 56.9219 75.0796V74.2838C56.9219 74.2838 57.0545 74.2175 57.3198 74.2175C57.585 74.2175 57.7177 74.2838 57.7177 74.2838V75.0796ZM57.7177 80.1859C57.7177 80.1859 57.585 80.2522 57.3198 80.2522C57.0545 80.2522 56.9219 80.1859 56.9219 80.1859V75.9417C56.9219 75.9417 57.0545 75.8754 57.3198 75.8754C57.585 75.8754 57.7177 75.9417 57.7177 75.9417V80.1859Z" fill="#025A44"/>
<path d="M60.435 75.8093C61.6287 75.8093 62.0266 76.3399 62.0266 77.4009V80.1862C62.0266 80.1862 61.9603 80.2525 61.695 80.2525C61.4961 80.2525 61.3635 80.1862 61.3635 80.1862L61.2308 79.6556C61.0319 80.1198 60.5677 80.3188 59.9045 80.3188C59.1087 80.3188 58.6445 79.8546 58.6445 78.9262C58.6445 77.9977 59.1751 77.5998 60.2361 77.5998C60.634 77.5998 60.9656 77.5998 61.1645 77.6662V77.3346C61.1645 76.8041 60.9656 76.4725 60.3024 76.4725C59.7056 76.4725 59.175 76.6714 59.175 76.6714C59.175 76.6714 59.0424 76.6051 58.9761 76.4062C58.9098 76.2072 58.9098 76.0746 58.9098 76.0746C58.9761 76.1409 59.6393 75.8093 60.435 75.8093ZM60.3687 78.1967C59.8382 78.1967 59.5066 78.3956 59.5066 78.9262C59.5066 79.4567 59.7719 79.6556 60.2361 79.6556C60.8993 79.6556 61.1645 79.1251 61.1645 78.5283V78.263C61.0319 78.263 60.7003 78.1967 60.3687 78.1967Z" fill="#025A44"/>
<path d="M66.5363 74.0183C67.0668 74.0183 67.4647 74.2173 67.4647 74.2173C67.4647 74.4162 67.3984 74.6151 67.2658 74.8141C67.2658 74.8141 67.0005 74.7478 66.6026 74.7478C66.1384 74.7478 66.0058 74.9467 66.0058 75.4109V75.9415H67.0668C67.0668 76.0078 67.1332 76.1404 67.1332 76.273C67.1332 76.4057 67.1331 76.472 67.0668 76.5383H66.0058V80.1857C66.0058 80.1857 65.8732 80.252 65.6079 80.252C65.3426 80.252 65.21 80.1857 65.21 80.1857V76.5383H64.6795C64.6795 76.472 64.6132 76.3394 64.6132 76.2067C64.6132 76.0741 64.6132 76.0078 64.6795 75.8751H65.21V75.4109C65.1437 74.6152 65.4753 74.0183 66.5363 74.0183Z" fill="#025A44"/>
<path d="M69.388 75.8074C70.5153 75.8074 71.2448 76.4042 71.2448 78.0621C71.2448 79.72 70.5153 80.3168 69.388 80.3168C68.2606 80.3168 67.5311 79.72 67.5311 78.0621C67.5974 76.4042 68.2606 75.8074 69.388 75.8074ZM69.388 76.4705C68.7911 76.4705 68.3932 76.8021 68.3932 78.0621C68.3932 79.3221 68.7911 79.6537 69.388 79.6537C69.9848 79.6537 70.3827 79.3221 70.3827 78.0621C70.3827 76.8021 69.9848 76.4705 69.388 76.4705Z" fill="#025A44"/>
<path d="M74.0951 75.8074C74.4267 75.8074 74.6256 75.8737 74.8246 76.0063C74.8246 76.2716 74.6919 76.5368 74.493 76.6695C74.3604 76.5368 74.1614 76.4705 73.9625 76.4705C73.6309 76.4705 73.2993 76.7358 73.1004 77.0674V80.0516C73.1004 80.0516 72.9677 80.1179 72.7025 80.1179C72.4372 80.1179 72.3046 80.0516 72.3046 80.0516V75.94C72.3046 75.94 72.4372 75.8737 72.7025 75.8737C72.9677 75.8737 73.1004 75.94 73.1004 75.94V76.5368C73.3656 76.0063 73.7635 75.8074 74.0951 75.8074Z" fill="#025A44"/>
<path d="M76.0182 78.3274C76.0845 79.3221 76.4824 79.6537 77.1456 79.6537C77.7424 79.6537 78.1403 79.3884 78.1403 79.3884C78.273 79.521 78.4056 79.72 78.4056 79.9853C78.4056 79.9853 77.9414 80.3168 77.013 80.3168C75.753 80.3168 75.1561 79.521 75.1561 78.0621C75.1561 76.4705 75.8856 75.8074 77.013 75.8074C78.0077 75.8074 78.6709 76.3379 78.6709 77.4653C78.6709 77.9958 78.6045 78.3274 78.6045 78.3274H76.0182ZM77.013 76.4705C76.4824 76.4705 76.0845 76.8021 76.0182 77.7305H77.8088C77.8088 77.6642 77.8088 77.5316 77.8088 77.3326C77.8088 76.8684 77.6098 76.4705 77.013 76.4705Z" fill="#025A44"/>
<path d="M80.9939 75.8074C81.7897 75.8074 82.1876 76.0063 82.1876 76.0063C82.1876 76.2053 82.1213 76.4705 81.9886 76.6032C81.9886 76.6032 81.5907 76.4705 81.1265 76.4705C80.596 76.4705 80.2644 76.6695 80.2644 77.0674C80.2644 77.4653 80.7949 77.5979 81.3255 77.7305C81.856 77.9295 82.4528 78.1284 82.4528 78.9905C82.4528 79.8526 81.9223 80.3168 80.8613 80.3168C79.9992 80.3168 79.4686 80.0516 79.4686 80.0516C79.4686 79.7863 79.5349 79.5874 79.6676 79.4547C79.6676 79.4547 80.1981 79.6537 80.7949 79.6537C81.3255 79.6537 81.5907 79.4547 81.5907 79.0568C81.5907 78.5926 81.1265 78.5263 80.6623 78.3937C80.1318 78.261 79.4686 77.9958 79.4686 77.2C79.4686 76.3379 79.9328 75.8074 80.9939 75.8074Z" fill="#025A44"/>
<path d="M84.4391 78.6597C84.4391 79.3892 84.7044 79.6545 85.2349 79.6545C85.3675 79.6545 85.5665 79.6545 85.5665 79.6545C85.5665 79.6545 85.6328 79.7871 85.6328 79.986C85.6328 80.185 85.5665 80.2513 85.5665 80.2513C85.4338 80.3176 85.1686 80.3176 84.9696 80.3176C83.9749 80.3176 83.577 79.7871 83.577 78.726V76.5376H82.9138C82.9138 76.5376 82.8475 76.405 82.8475 76.206C82.8475 76.0071 82.9138 75.8745 82.9138 75.8745H83.577V75.145C83.7759 75.0124 84.1075 74.946 84.3728 74.946V75.8745H85.4338C85.4338 75.8745 85.5002 76.0071 85.5002 76.206C85.5002 76.405 85.4338 76.5376 85.4338 76.5376H84.3728V78.6597H84.4391Z" fill="#025A44"/>
<path d="M42.0676 83.6335C42.996 83.6335 43.5928 84.2304 43.5928 85.8883C43.5928 87.5462 42.996 88.143 42.0676 88.143C41.4708 88.143 41.1392 87.9441 40.8739 87.6125V89.9335C40.8739 89.9335 40.7413 89.9998 40.476 89.9998C40.2108 89.9998 40.0781 89.9335 40.0781 89.9335V83.7662C40.0781 83.7662 40.2108 83.6999 40.476 83.6999C40.7413 83.6999 40.8739 83.7662 40.8739 83.7662V84.1641C41.0729 83.8325 41.4708 83.6335 42.0676 83.6335ZM41.736 84.2967C41.1392 84.2967 40.8076 84.7609 40.8076 85.3578V86.4188C40.8076 87.0156 41.1392 87.4798 41.736 87.4798C42.3992 87.4798 42.7307 87.1483 42.7307 85.8883C42.7307 84.6283 42.3992 84.2967 41.736 84.2967Z" fill="#025A44"/>
<path d="M46.439 83.6335C46.7705 83.6335 46.9695 83.6998 47.1684 83.8324C47.1684 84.0977 47.0358 84.3629 46.8369 84.4956C46.7042 84.3629 46.5053 84.2966 46.3063 84.2966C45.9747 84.2966 45.6432 84.5619 45.4442 84.8935V87.8777C45.4442 87.8777 45.3116 87.944 45.0463 87.944C44.7811 87.944 44.6484 87.8777 44.6484 87.8777V83.6335C44.6484 83.6335 44.7811 83.5671 45.0463 83.5671C45.3116 83.5671 45.4442 83.6335 45.4442 83.6335V84.2303C45.7758 83.8324 46.1074 83.6335 46.439 83.6335Z" fill="#025A44"/>
<path d="M49.4272 83.6335C50.5545 83.6335 51.284 84.2304 51.284 85.8883C51.284 87.5462 50.5545 88.143 49.4272 88.143C48.2998 88.143 47.5703 87.5462 47.5703 85.8883C47.5703 84.2967 48.2998 83.6335 49.4272 83.6335ZM49.4272 84.2967C48.8303 84.2967 48.4324 84.6283 48.4324 85.8883C48.4324 87.1483 48.8303 87.4798 49.4272 87.4798C50.024 87.4798 50.4219 87.1483 50.4219 85.8883C50.4219 84.6283 50.024 84.2967 49.4272 84.2967Z" fill="#025A44"/>
<path d="M55.2613 81.9099C55.5265 81.9099 55.6592 81.9762 55.6592 81.9762V88.0773C55.6592 88.0773 55.5265 88.1436 55.3276 88.1436C55.1286 88.1436 54.9297 88.0773 54.9297 88.0773L54.8634 87.6131C54.5981 87.9446 54.2665 88.2099 53.6034 88.2099C52.675 88.2099 52.0781 87.6131 52.0781 85.9552C52.0781 84.2973 52.675 83.7004 53.6034 83.7004C54.2002 83.7004 54.5318 83.8994 54.7971 84.231V81.9099C54.7971 81.9099 54.996 81.9099 55.2613 81.9099ZM53.935 84.2973C53.2718 84.2973 52.9402 84.6289 52.9402 85.8888C52.9402 87.1488 53.2718 87.4804 53.935 87.4804C54.5318 87.4804 54.8634 87.0162 54.8634 86.4194V85.3583C54.7971 84.8278 54.4655 84.2973 53.935 84.2973Z" fill="#025A44"/>
<path d="M56.8516 83.7663C56.8516 83.7663 56.9842 83.7 57.2495 83.7C57.5147 83.7 57.6474 83.7663 57.6474 83.7663V86.7505C57.6474 87.2147 57.9126 87.4799 58.4431 87.4799C58.7747 87.4799 59.1726 87.281 59.3716 86.9494V83.7663C59.3716 83.7663 59.5042 83.7 59.7695 83.7C60.0347 83.7 60.1673 83.7663 60.1673 83.7663V88.0105C60.1673 88.0105 60.0347 88.0768 59.7695 88.0768C59.5042 88.0768 59.3716 88.0105 59.3716 88.0105V87.6126C59.1063 87.9441 58.6421 88.1431 58.1116 88.1431C57.3158 88.1431 56.8516 87.6126 56.8516 86.8831V83.7663Z" fill="#025A44"/>
<path d="M62.0263 85.8883C62.0263 86.9493 62.3578 87.4135 63.1536 87.4135C63.6178 87.4135 63.9494 87.2809 63.9494 87.2809C64.082 87.4135 64.1484 87.6125 64.2147 87.8777C64.2147 87.8777 63.8831 88.143 63.021 88.143C61.8273 88.143 61.2305 87.3472 61.2305 85.8883C61.2305 84.4293 61.8273 83.6335 63.021 83.6335C63.8168 83.6335 64.1483 83.8325 64.1483 83.8325C64.1483 84.0314 64.082 84.2967 63.8831 84.4293C63.8831 84.4293 63.6178 84.2967 63.1536 84.2967C62.3578 84.2967 62.0263 84.8272 62.0263 85.8883Z" fill="#025A44"/>
<path d="M66.2047 86.4859C66.2047 87.2154 66.47 87.4806 67.0005 87.4806C67.1331 87.4806 67.3321 87.4806 67.3321 87.4806C67.3321 87.4806 67.3984 87.6133 67.3984 87.8122C67.3984 88.0111 67.3321 88.0775 67.3321 88.0775C67.1995 88.1438 66.9342 88.1438 66.7353 88.1438C65.7405 88.1438 65.3426 87.6133 65.3426 86.5522V84.3638H64.6795C64.6795 84.3638 64.6132 84.2312 64.6132 84.0322C64.6132 83.8333 64.6795 83.7006 64.6795 83.7006H65.3426V82.9712C65.5416 82.8385 65.8731 82.7722 66.1384 82.7722V83.7006H67.1995C67.1995 83.7006 67.2658 83.8333 67.2658 84.0322C67.2658 84.2312 67.1995 84.3638 67.1995 84.3638H66.2047V86.4859Z" fill="#025A44"/>
<path d="M69.5854 83.6335C70.3812 83.6335 70.779 83.8325 70.779 83.8325C70.779 84.0314 70.7127 84.2967 70.5801 84.4293C70.5801 84.4293 70.1822 84.2967 69.718 84.2967C69.1875 84.2967 68.8559 84.4956 68.8559 84.8935C68.8559 85.2914 69.3864 85.4241 69.9169 85.5567C70.4475 85.7556 71.0443 85.9546 71.0443 86.8167C71.0443 87.6788 70.5138 88.143 69.4527 88.143C68.5906 88.143 68.0601 87.8777 68.0601 87.8777C68.0601 87.6125 68.1264 87.4135 68.2591 87.2809C68.2591 87.2809 68.7896 87.4798 69.3864 87.4798C69.9169 87.4798 70.1822 87.2809 70.1822 86.883C70.1822 86.4188 69.718 86.3525 69.2538 86.2199C68.7233 86.0872 68.0601 85.822 68.0601 85.0262C67.9938 84.1641 68.5243 83.6335 69.5854 83.6335Z" fill="#025A44"/>
</svg>
