<svg width="292" height="1018" viewBox="0 0 292 1018" fill="none" xmlns="http://www.w3.org/2000/svg">
<g opacity="0.15">
<path fill-rule="evenodd" clip-rule="evenodd" d="M6.44313 11.4846C9.51169 11.4846 12.0223 8.9824 12.0223 5.90538C12.0223 2.81991 9.51169 0.326172 6.44313 0.326172C3.36611 0.326172 0.855469 2.81991 0.855469 5.90538C0.855469 8.9824 3.36611 11.4846 6.44313 11.4846Z" fill="#737373"/>
<path fill-rule="evenodd" clip-rule="evenodd" d="M62.3168 11.4846C65.4023 11.4846 67.9045 8.9824 67.9045 5.90538C67.9045 2.81991 65.4023 0.326172 62.3168 0.326172C59.2483 0.326172 56.7461 2.81991 56.7461 5.90538C56.7461 8.9824 59.2483 11.4846 62.3168 11.4846Z" fill="#737373"/>
<path fill-rule="evenodd" clip-rule="evenodd" d="M118.204 11.4846C121.281 11.4846 123.783 8.9824 123.783 5.90538C123.783 2.81991 121.281 0.326172 118.204 0.326172C115.127 0.326172 112.625 2.81991 112.625 5.90538C112.625 8.9824 115.127 11.4846 118.204 11.4846Z" fill="#737373"/>
<path fill-rule="evenodd" clip-rule="evenodd" d="M174.083 11.4846C177.16 11.4846 179.662 8.9824 179.662 5.90538C179.662 2.81991 177.16 0.326172 174.083 0.326172C171.014 0.326172 168.504 2.81991 168.504 5.90538C168.504 8.9824 171.014 11.4846 174.083 11.4846Z" fill="#737373"/>
<path fill-rule="evenodd" clip-rule="evenodd" d="M229.97 11.4846C233.039 11.4846 235.541 8.9824 235.541 5.90538C235.541 2.81991 233.039 0.326172 229.97 0.326172C226.893 0.326172 224.383 2.81991 224.383 5.90538C224.383 8.9824 226.893 11.4846 229.97 11.4846Z" fill="#737373"/>
<path fill-rule="evenodd" clip-rule="evenodd" d="M285.849 11.4846C288.926 11.4846 291.428 8.9824 291.428 5.90538C291.428 2.81991 288.926 0.326172 285.849 0.326172C282.772 0.326172 280.27 2.81991 280.27 5.90538C280.27 8.9824 282.772 11.4846 285.849 11.4846Z" fill="#737373"/>
<path fill-rule="evenodd" clip-rule="evenodd" d="M6.44313 67.3559C9.51169 67.3559 12.0223 64.8622 12.0223 61.7767C12.0223 58.6997 9.51169 56.1975 6.44313 56.1975C3.36611 56.1975 0.855469 58.6997 0.855469 61.7767C0.855469 64.8622 3.36611 67.3559 6.44313 67.3559Z" fill="#737373"/>
<path fill-rule="evenodd" clip-rule="evenodd" d="M62.3168 67.3557C65.4023 67.3557 67.9045 64.8619 67.9045 61.7765C67.9045 58.6995 65.4023 56.1973 62.3168 56.1973C59.2483 56.1973 56.7461 58.6995 56.7461 61.7765C56.7461 64.8619 59.2483 67.3557 62.3168 67.3557Z" fill="#737373"/>
<path fill-rule="evenodd" clip-rule="evenodd" d="M118.204 67.3557C121.281 67.3557 123.783 64.8619 123.783 61.7765C123.783 58.6995 121.281 56.1973 118.204 56.1973C115.127 56.1973 112.625 58.6995 112.625 61.7765C112.625 64.8619 115.127 67.3557 118.204 67.3557Z" fill="#737373"/>
<path fill-rule="evenodd" clip-rule="evenodd" d="M174.083 67.3559C177.16 67.3559 179.662 64.8622 179.662 61.7767C179.662 58.6997 177.16 56.1975 174.083 56.1975C171.014 56.1975 168.504 58.6997 168.504 61.7767C168.504 64.8622 171.014 67.3559 174.083 67.3559Z" fill="#737373"/>
<path fill-rule="evenodd" clip-rule="evenodd" d="M229.97 67.3557C233.039 67.3557 235.541 64.8619 235.541 61.7765C235.541 58.6995 233.039 56.1973 229.97 56.1973C226.893 56.1973 224.383 58.6995 224.383 61.7765C224.383 64.8619 226.893 67.3557 229.97 67.3557Z" fill="#737373"/>
<path fill-rule="evenodd" clip-rule="evenodd" d="M285.849 67.3557C288.926 67.3557 291.428 64.8619 291.428 61.7765C291.428 58.6995 288.926 56.1973 285.849 56.1973C282.772 56.1973 280.27 58.6995 280.27 61.7765C280.27 64.8619 282.772 67.3557 285.849 67.3557Z" fill="#737373"/>
<path fill-rule="evenodd" clip-rule="evenodd" d="M6.44313 123.244C9.51169 123.244 12.0223 120.75 12.0223 117.665C12.0223 114.579 9.51169 112.086 6.44313 112.086C3.36611 112.086 0.855469 114.579 0.855469 117.665C0.855469 120.75 3.36611 123.244 6.44313 123.244Z" fill="#737373"/>
<path fill-rule="evenodd" clip-rule="evenodd" d="M62.3168 123.244C65.4023 123.244 67.9045 120.751 67.9045 117.665C67.9045 114.58 65.4023 112.086 62.3168 112.086C59.2483 112.086 56.7461 114.58 56.7461 117.665C56.7461 120.751 59.2483 123.244 62.3168 123.244Z" fill="#737373"/>
<path fill-rule="evenodd" clip-rule="evenodd" d="M118.204 123.244C121.281 123.244 123.783 120.751 123.783 117.665C123.783 114.58 121.281 112.086 118.204 112.086C115.127 112.086 112.625 114.58 112.625 117.665C112.625 120.751 115.127 123.244 118.204 123.244Z" fill="#737373"/>
<path fill-rule="evenodd" clip-rule="evenodd" d="M174.083 123.244C177.16 123.244 179.662 120.75 179.662 117.665C179.662 114.579 177.16 112.086 174.083 112.086C171.014 112.086 168.504 114.579 168.504 117.665C168.504 120.75 171.014 123.244 174.083 123.244Z" fill="#737373"/>
<path fill-rule="evenodd" clip-rule="evenodd" d="M229.97 123.244C233.039 123.244 235.541 120.751 235.541 117.665C235.541 114.58 233.039 112.086 229.97 112.086C226.893 112.086 224.383 114.58 224.383 117.665C224.383 120.751 226.893 123.244 229.97 123.244Z" fill="#737373"/>
<path fill-rule="evenodd" clip-rule="evenodd" d="M285.849 123.244C288.926 123.244 291.428 120.751 291.428 117.665C291.428 114.58 288.926 112.086 285.849 112.086C282.772 112.086 280.27 114.58 280.27 117.665C280.27 120.751 282.772 123.244 285.849 123.244Z" fill="#737373"/>
<path fill-rule="evenodd" clip-rule="evenodd" d="M6.44313 179.125C9.51169 179.125 12.0223 176.622 12.0223 173.545C12.0223 170.468 9.51169 167.975 6.44313 167.975C3.36611 167.975 0.855469 170.468 0.855469 173.545C0.855469 176.622 3.36611 179.125 6.44313 179.125Z" fill="#737373"/>
<path fill-rule="evenodd" clip-rule="evenodd" d="M62.3168 179.125C65.4023 179.125 67.9045 176.622 67.9045 173.545C67.9045 170.468 65.4023 167.975 62.3168 167.975C59.2483 167.975 56.7461 170.468 56.7461 173.545C56.7461 176.622 59.2483 179.125 62.3168 179.125Z" fill="#737373"/>
<path fill-rule="evenodd" clip-rule="evenodd" d="M118.204 179.125C121.281 179.125 123.783 176.622 123.783 173.545C123.783 170.468 121.281 167.975 118.204 167.975C115.127 167.975 112.625 170.468 112.625 173.545C112.625 176.622 115.127 179.125 118.204 179.125Z" fill="#737373"/>
<path fill-rule="evenodd" clip-rule="evenodd" d="M174.083 179.125C177.16 179.125 179.662 176.622 179.662 173.545C179.662 170.468 177.16 167.975 174.083 167.975C171.015 167.975 168.504 170.468 168.504 173.545C168.504 176.622 171.015 179.125 174.083 179.125Z" fill="#737373"/>
<path fill-rule="evenodd" clip-rule="evenodd" d="M229.97 179.125C233.039 179.125 235.541 176.622 235.541 173.545C235.541 170.468 233.039 167.975 229.97 167.975C226.893 167.975 224.383 170.468 224.383 173.545C224.383 176.622 226.893 179.125 229.97 179.125Z" fill="#737373"/>
<path fill-rule="evenodd" clip-rule="evenodd" d="M285.849 179.125C288.926 179.125 291.428 176.622 291.428 173.545C291.428 170.468 288.926 167.975 285.849 167.975C282.772 167.975 280.27 170.468 280.27 173.545C280.27 176.622 282.772 179.125 285.849 179.125Z" fill="#737373"/>
<path fill-rule="evenodd" clip-rule="evenodd" d="M6.44313 235.004C9.51169 235.004 12.0223 232.51 12.0223 229.425C12.0223 226.348 9.51169 223.846 6.44313 223.846C3.36611 223.846 0.855469 226.348 0.855469 229.425C0.855469 232.51 3.36611 235.004 6.44313 235.004Z" fill="#737373"/>
<path fill-rule="evenodd" clip-rule="evenodd" d="M62.3168 235.004C65.4023 235.004 67.9045 232.51 67.9045 229.425C67.9045 226.348 65.4023 223.846 62.3168 223.846C59.2483 223.846 56.7461 226.348 56.7461 229.425C56.7461 232.51 59.2483 235.004 62.3168 235.004Z" fill="#737373"/>
<path fill-rule="evenodd" clip-rule="evenodd" d="M118.204 235.004C121.281 235.004 123.783 232.51 123.783 229.425C123.783 226.348 121.281 223.846 118.204 223.846C115.127 223.846 112.625 226.348 112.625 229.425C112.625 232.51 115.127 235.004 118.204 235.004Z" fill="#737373"/>
<path fill-rule="evenodd" clip-rule="evenodd" d="M174.083 235.004C177.16 235.004 179.662 232.51 179.662 229.425C179.662 226.348 177.16 223.846 174.083 223.846C171.015 223.846 168.504 226.348 168.504 229.425C168.504 232.51 171.015 235.004 174.083 235.004Z" fill="#737373"/>
<path fill-rule="evenodd" clip-rule="evenodd" d="M229.97 235.004C233.039 235.004 235.541 232.51 235.541 229.425C235.541 226.348 233.039 223.846 229.97 223.846C226.893 223.846 224.383 226.348 224.383 229.425C224.383 232.51 226.893 235.004 229.97 235.004Z" fill="#737373"/>
<path fill-rule="evenodd" clip-rule="evenodd" d="M285.849 235.004C288.926 235.004 291.428 232.51 291.428 229.425C291.428 226.348 288.926 223.846 285.849 223.846C282.772 223.846 280.27 226.348 280.27 229.425C280.27 232.51 282.772 235.004 285.849 235.004Z" fill="#737373"/>
<path fill-rule="evenodd" clip-rule="evenodd" d="M6.44313 290.891C9.51169 290.891 12.0223 288.397 12.0223 285.312C12.0223 282.226 9.51169 279.732 6.44313 279.732C3.36611 279.732 0.855469 282.226 0.855469 285.312C0.855469 288.397 3.36611 290.891 6.44313 290.891Z" fill="#737373"/>
<path fill-rule="evenodd" clip-rule="evenodd" d="M62.3168 290.891C65.4023 290.891 67.9045 288.397 67.9045 285.312C67.9045 282.226 65.4023 279.732 62.3168 279.732C59.2483 279.732 56.7461 282.226 56.7461 285.312C56.7461 288.397 59.2483 290.891 62.3168 290.891Z" fill="#737373"/>
<path fill-rule="evenodd" clip-rule="evenodd" d="M118.204 290.891C121.281 290.891 123.783 288.397 123.783 285.312C123.783 282.226 121.281 279.732 118.204 279.732C115.127 279.732 112.625 282.226 112.625 285.312C112.625 288.397 115.127 290.891 118.204 290.891Z" fill="#737373"/>
<path fill-rule="evenodd" clip-rule="evenodd" d="M174.083 290.891C177.16 290.891 179.662 288.397 179.662 285.312C179.662 282.226 177.16 279.732 174.083 279.732C171.015 279.732 168.504 282.226 168.504 285.312C168.504 288.397 171.015 290.891 174.083 290.891Z" fill="#737373"/>
<path fill-rule="evenodd" clip-rule="evenodd" d="M229.97 290.891C233.039 290.891 235.541 288.397 235.541 285.312C235.541 282.226 233.039 279.732 229.97 279.732C226.893 279.732 224.383 282.226 224.383 285.312C224.383 288.397 226.893 290.891 229.97 290.891Z" fill="#737373"/>
<path fill-rule="evenodd" clip-rule="evenodd" d="M285.849 290.891C288.926 290.891 291.428 288.397 291.428 285.312C291.428 282.226 288.926 279.732 285.849 279.732C282.772 279.732 280.27 282.226 280.27 285.312C280.27 288.397 282.772 290.891 285.849 290.891Z" fill="#737373"/>
<path fill-rule="evenodd" clip-rule="evenodd" d="M6.44313 346.772C9.51169 346.772 12.0223 344.27 12.0223 341.192C12.0223 338.115 9.51169 335.613 6.44313 335.613C3.36611 335.613 0.855469 338.115 0.855469 341.192C0.855469 344.27 3.36611 346.772 6.44313 346.772Z" fill="#737373"/>
<path fill-rule="evenodd" clip-rule="evenodd" d="M62.3168 346.772C65.4023 346.772 67.9045 344.27 67.9045 341.192C67.9045 338.115 65.4023 335.613 62.3168 335.613C59.2483 335.613 56.7461 338.115 56.7461 341.192C56.7461 344.27 59.2483 346.772 62.3168 346.772Z" fill="#737373"/>
<path fill-rule="evenodd" clip-rule="evenodd" d="M118.204 346.772C121.281 346.772 123.783 344.27 123.783 341.192C123.783 338.115 121.281 335.613 118.204 335.613C115.127 335.613 112.625 338.115 112.625 341.192C112.625 344.27 115.127 346.772 118.204 346.772Z" fill="#737373"/>
<path fill-rule="evenodd" clip-rule="evenodd" d="M174.083 346.772C177.16 346.772 179.662 344.27 179.662 341.192C179.662 338.115 177.16 335.613 174.083 335.613C171.014 335.613 168.504 338.115 168.504 341.192C168.504 344.27 171.014 346.772 174.083 346.772Z" fill="#737373"/>
<path fill-rule="evenodd" clip-rule="evenodd" d="M229.97 346.772C233.039 346.772 235.541 344.27 235.541 341.192C235.541 338.115 233.039 335.613 229.97 335.613C226.893 335.613 224.383 338.115 224.383 341.192C224.383 344.27 226.893 346.772 229.97 346.772Z" fill="#737373"/>
<path fill-rule="evenodd" clip-rule="evenodd" d="M285.849 346.772C288.926 346.772 291.428 344.27 291.428 341.192C291.428 338.115 288.926 335.613 285.849 335.613C282.772 335.613 280.27 338.115 280.27 341.192C280.27 344.27 282.772 346.772 285.849 346.772Z" fill="#737373"/>
<path fill-rule="evenodd" clip-rule="evenodd" d="M6.44313 402.65C9.51169 402.65 12.0223 400.156 12.0223 397.07C12.0223 393.985 9.51169 391.491 6.44313 391.491C3.36611 391.491 0.855469 393.985 0.855469 397.07C0.855469 400.156 3.36611 402.65 6.44313 402.65Z" fill="#737373"/>
<path fill-rule="evenodd" clip-rule="evenodd" d="M62.3168 402.65C65.4023 402.65 67.9045 400.156 67.9045 397.07C67.9045 393.985 65.4023 391.491 62.3168 391.491C59.2483 391.491 56.7461 393.985 56.7461 397.07C56.7461 400.156 59.2483 402.65 62.3168 402.65Z" fill="#737373"/>
<path fill-rule="evenodd" clip-rule="evenodd" d="M118.204 402.65C121.281 402.65 123.783 400.156 123.783 397.07C123.783 393.985 121.281 391.491 118.204 391.491C115.127 391.491 112.625 393.985 112.625 397.07C112.625 400.156 115.127 402.65 118.204 402.65Z" fill="#737373"/>
<path fill-rule="evenodd" clip-rule="evenodd" d="M174.083 402.65C177.16 402.65 179.662 400.156 179.662 397.07C179.662 393.985 177.16 391.491 174.083 391.491C171.015 391.491 168.504 393.985 168.504 397.07C168.504 400.156 171.015 402.65 174.083 402.65Z" fill="#737373"/>
<path fill-rule="evenodd" clip-rule="evenodd" d="M229.97 402.65C233.039 402.65 235.541 400.156 235.541 397.07C235.541 393.985 233.039 391.491 229.97 391.491C226.893 391.491 224.383 393.985 224.383 397.07C224.383 400.156 226.893 402.65 229.97 402.65Z" fill="#737373"/>
<path fill-rule="evenodd" clip-rule="evenodd" d="M285.849 402.65C288.926 402.65 291.428 400.156 291.428 397.07C291.428 393.985 288.926 391.491 285.849 391.491C282.772 391.491 280.27 393.985 280.27 397.07C280.27 400.156 282.772 402.65 285.849 402.65Z" fill="#737373"/>
<path fill-rule="evenodd" clip-rule="evenodd" d="M6.44313 458.539C9.51169 458.539 12.0223 456.036 12.0223 452.959C12.0223 449.874 9.51169 447.38 6.44313 447.38C3.36611 447.38 0.855469 449.874 0.855469 452.959C0.855469 456.036 3.36611 458.539 6.44313 458.539Z" fill="#737373"/>
<path fill-rule="evenodd" clip-rule="evenodd" d="M62.3168 458.538C65.4023 458.538 67.9045 456.036 67.9045 452.959C67.9045 449.874 65.4023 447.38 62.3168 447.38C59.2483 447.38 56.7461 449.874 56.7461 452.959C56.7461 456.036 59.2483 458.538 62.3168 458.538Z" fill="#737373"/>
<path fill-rule="evenodd" clip-rule="evenodd" d="M118.204 458.538C121.281 458.538 123.783 456.036 123.783 452.959C123.783 449.874 121.281 447.38 118.204 447.38C115.127 447.38 112.625 449.874 112.625 452.959C112.625 456.036 115.127 458.538 118.204 458.538Z" fill="#737373"/>
<path fill-rule="evenodd" clip-rule="evenodd" d="M174.083 458.539C177.16 458.539 179.662 456.036 179.662 452.959C179.662 449.874 177.16 447.38 174.083 447.38C171.014 447.38 168.504 449.874 168.504 452.959C168.504 456.036 171.014 458.539 174.083 458.539Z" fill="#737373"/>
<path fill-rule="evenodd" clip-rule="evenodd" d="M229.97 458.538C233.039 458.538 235.541 456.036 235.541 452.959C235.541 449.874 233.039 447.38 229.97 447.38C226.893 447.38 224.383 449.874 224.383 452.959C224.383 456.036 226.893 458.538 229.97 458.538Z" fill="#737373"/>
<path fill-rule="evenodd" clip-rule="evenodd" d="M285.849 458.538C288.926 458.538 291.428 456.036 291.428 452.959C291.428 449.874 288.926 447.38 285.849 447.38C282.772 447.38 280.27 449.874 280.27 452.959C280.27 456.036 282.772 458.538 285.849 458.538Z" fill="#737373"/>
<path fill-rule="evenodd" clip-rule="evenodd" d="M6.44313 514.409C9.51169 514.409 12.0223 511.916 12.0223 508.83C12.0223 505.762 9.51169 503.251 6.44313 503.251C3.36611 503.251 0.855469 505.762 0.855469 508.83C0.855469 511.916 3.36611 514.409 6.44313 514.409Z" fill="#737373"/>
<path fill-rule="evenodd" clip-rule="evenodd" d="M62.3168 514.409C65.4023 514.409 67.9045 511.916 67.9045 508.83C67.9045 505.762 65.4023 503.251 62.3168 503.251C59.2483 503.251 56.7461 505.762 56.7461 508.83C56.7461 511.916 59.2483 514.409 62.3168 514.409Z" fill="#737373"/>
<path fill-rule="evenodd" clip-rule="evenodd" d="M118.204 514.409C121.281 514.409 123.783 511.916 123.783 508.83C123.783 505.762 121.281 503.251 118.204 503.251C115.127 503.251 112.625 505.762 112.625 508.83C112.625 511.916 115.127 514.409 118.204 514.409Z" fill="#737373"/>
<path fill-rule="evenodd" clip-rule="evenodd" d="M174.083 514.409C177.16 514.409 179.662 511.916 179.662 508.83C179.662 505.762 177.16 503.251 174.083 503.251C171.015 503.251 168.504 505.762 168.504 508.83C168.504 511.916 171.015 514.409 174.083 514.409Z" fill="#737373"/>
<path fill-rule="evenodd" clip-rule="evenodd" d="M229.97 514.409C233.039 514.409 235.541 511.916 235.541 508.83C235.541 505.762 233.039 503.251 229.97 503.251C226.893 503.251 224.383 505.762 224.383 508.83C224.383 511.916 226.893 514.409 229.97 514.409Z" fill="#737373"/>
<path fill-rule="evenodd" clip-rule="evenodd" d="M285.849 514.409C288.926 514.409 291.428 511.916 291.428 508.83C291.428 505.762 288.926 503.251 285.849 503.251C282.772 503.251 280.27 505.762 280.27 508.83C280.27 511.916 282.772 514.409 285.849 514.409Z" fill="#737373"/>
<path fill-rule="evenodd" clip-rule="evenodd" d="M6.44313 570.296C9.51169 570.296 12.0223 567.802 12.0223 564.717C12.0223 561.631 9.51169 559.138 6.44313 559.138C3.36611 559.138 0.855469 561.631 0.855469 564.717C0.855469 567.802 3.36611 570.296 6.44313 570.296Z" fill="#737373"/>
<path fill-rule="evenodd" clip-rule="evenodd" d="M62.3168 570.296C65.4023 570.296 67.9045 567.802 67.9045 564.717C67.9045 561.631 65.4023 559.138 62.3168 559.138C59.2483 559.138 56.7461 561.631 56.7461 564.717C56.7461 567.802 59.2483 570.296 62.3168 570.296Z" fill="#737373"/>
<path fill-rule="evenodd" clip-rule="evenodd" d="M118.204 570.296C121.281 570.296 123.783 567.802 123.783 564.717C123.783 561.631 121.281 559.138 118.204 559.138C115.127 559.138 112.625 561.631 112.625 564.717C112.625 567.802 115.127 570.296 118.204 570.296Z" fill="#737373"/>
<path fill-rule="evenodd" clip-rule="evenodd" d="M174.083 570.296C177.16 570.296 179.662 567.802 179.662 564.717C179.662 561.631 177.16 559.138 174.083 559.138C171.015 559.138 168.504 561.631 168.504 564.717C168.504 567.802 171.015 570.296 174.083 570.296Z" fill="#737373"/>
<path fill-rule="evenodd" clip-rule="evenodd" d="M229.97 570.296C233.039 570.296 235.541 567.802 235.541 564.717C235.541 561.631 233.039 559.138 229.97 559.138C226.893 559.138 224.383 561.631 224.383 564.717C224.383 567.802 226.893 570.296 229.97 570.296Z" fill="#737373"/>
<path fill-rule="evenodd" clip-rule="evenodd" d="M285.849 570.296C288.926 570.296 291.428 567.802 291.428 564.717C291.428 561.631 288.926 559.138 285.849 559.138C282.772 559.138 280.27 561.631 280.27 564.717C280.27 567.802 282.772 570.296 285.849 570.296Z" fill="#737373"/>
<path fill-rule="evenodd" clip-rule="evenodd" d="M6.44313 626.178C9.51169 626.178 12.0223 623.676 12.0223 620.607C12.0223 617.522 9.51169 615.028 6.44313 615.028C3.36611 615.028 0.855469 617.522 0.855469 620.607C0.855469 623.676 3.36611 626.178 6.44313 626.178Z" fill="#737373"/>
<path fill-rule="evenodd" clip-rule="evenodd" d="M62.3168 626.178C65.4023 626.178 67.9045 623.676 67.9045 620.608C67.9045 617.522 65.4023 615.028 62.3168 615.028C59.2483 615.028 56.7461 617.522 56.7461 620.608C56.7461 623.676 59.2483 626.178 62.3168 626.178Z" fill="#737373"/>
<path fill-rule="evenodd" clip-rule="evenodd" d="M118.204 626.178C121.281 626.178 123.783 623.676 123.783 620.608C123.783 617.522 121.281 615.028 118.204 615.028C115.127 615.028 112.625 617.522 112.625 620.608C112.625 623.676 115.127 626.178 118.204 626.178Z" fill="#737373"/>
<path fill-rule="evenodd" clip-rule="evenodd" d="M174.083 626.178C177.16 626.178 179.662 623.676 179.662 620.607C179.662 617.522 177.16 615.028 174.083 615.028C171.014 615.028 168.504 617.522 168.504 620.607C168.504 623.676 171.014 626.178 174.083 626.178Z" fill="#737373"/>
<path fill-rule="evenodd" clip-rule="evenodd" d="M229.97 626.178C233.039 626.178 235.541 623.676 235.541 620.608C235.541 617.522 233.039 615.028 229.97 615.028C226.893 615.028 224.383 617.522 224.383 620.608C224.383 623.676 226.893 626.178 229.97 626.178Z" fill="#737373"/>
<path fill-rule="evenodd" clip-rule="evenodd" d="M285.849 626.178C288.926 626.178 291.428 623.676 291.428 620.608C291.428 617.522 288.926 615.028 285.849 615.028C282.772 615.028 280.27 617.522 280.27 620.608C280.27 623.676 282.772 626.178 285.849 626.178Z" fill="#737373"/>
<path fill-rule="evenodd" clip-rule="evenodd" d="M6.44313 682.056C9.51169 682.056 12.0223 679.562 12.0223 676.477C12.0223 673.4 9.51169 670.898 6.44313 670.898C3.36611 670.898 0.855469 673.4 0.855469 676.477C0.855469 679.562 3.36611 682.056 6.44313 682.056Z" fill="#737373"/>
<path fill-rule="evenodd" clip-rule="evenodd" d="M62.3168 682.056C65.4023 682.056 67.9045 679.562 67.9045 676.477C67.9045 673.4 65.4023 670.897 62.3168 670.897C59.2483 670.897 56.7461 673.4 56.7461 676.477C56.7461 679.562 59.2483 682.056 62.3168 682.056Z" fill="#737373"/>
<path fill-rule="evenodd" clip-rule="evenodd" d="M118.204 682.056C121.281 682.056 123.783 679.562 123.783 676.477C123.783 673.4 121.281 670.897 118.204 670.897C115.127 670.897 112.625 673.4 112.625 676.477C112.625 679.562 115.127 682.056 118.204 682.056Z" fill="#737373"/>
<path fill-rule="evenodd" clip-rule="evenodd" d="M174.083 682.056C177.16 682.056 179.662 679.562 179.662 676.477C179.662 673.4 177.16 670.898 174.083 670.898C171.014 670.898 168.504 673.4 168.504 676.477C168.504 679.562 171.014 682.056 174.083 682.056Z" fill="#737373"/>
<path fill-rule="evenodd" clip-rule="evenodd" d="M229.97 682.056C233.039 682.056 235.541 679.562 235.541 676.477C235.541 673.4 233.039 670.897 229.97 670.897C226.893 670.897 224.383 673.4 224.383 676.477C224.383 679.562 226.893 682.056 229.97 682.056Z" fill="#737373"/>
<path fill-rule="evenodd" clip-rule="evenodd" d="M285.849 682.056C288.926 682.056 291.428 679.562 291.428 676.477C291.428 673.4 288.926 670.897 285.849 670.897C282.772 670.897 280.27 673.4 280.27 676.477C280.27 679.562 282.772 682.056 285.849 682.056Z" fill="#737373"/>
<path fill-rule="evenodd" clip-rule="evenodd" d="M6.44313 737.944C9.51169 737.944 12.0223 735.451 12.0223 732.365C12.0223 729.28 9.51169 726.786 6.44313 726.786C3.36611 726.786 0.855469 729.28 0.855469 732.365C0.855469 735.451 3.36611 737.944 6.44313 737.944Z" fill="#737373"/>
<path fill-rule="evenodd" clip-rule="evenodd" d="M62.3168 737.945C65.4023 737.945 67.9045 735.451 67.9045 732.365C67.9045 729.28 65.4023 726.786 62.3168 726.786C59.2483 726.786 56.7461 729.28 56.7461 732.365C56.7461 735.451 59.2483 737.945 62.3168 737.945Z" fill="#737373"/>
<path fill-rule="evenodd" clip-rule="evenodd" d="M118.204 737.945C121.281 737.945 123.783 735.451 123.783 732.365C123.783 729.28 121.281 726.786 118.204 726.786C115.127 726.786 112.625 729.28 112.625 732.365C112.625 735.451 115.127 737.945 118.204 737.945Z" fill="#737373"/>
<path fill-rule="evenodd" clip-rule="evenodd" d="M174.083 737.944C177.16 737.944 179.662 735.451 179.662 732.365C179.662 729.28 177.16 726.786 174.083 726.786C171.014 726.786 168.504 729.28 168.504 732.365C168.504 735.451 171.014 737.944 174.083 737.944Z" fill="#737373"/>
<path fill-rule="evenodd" clip-rule="evenodd" d="M229.97 737.945C233.039 737.945 235.541 735.451 235.541 732.365C235.541 729.28 233.039 726.786 229.97 726.786C226.893 726.786 224.383 729.28 224.383 732.365C224.383 735.451 226.893 737.945 229.97 737.945Z" fill="#737373"/>
<path fill-rule="evenodd" clip-rule="evenodd" d="M285.849 737.945C288.926 737.945 291.428 735.451 291.428 732.365C291.428 729.28 288.926 726.786 285.849 726.786C282.772 726.786 280.27 729.28 280.27 732.365C280.27 735.451 282.772 737.945 285.849 737.945Z" fill="#737373"/>
<path fill-rule="evenodd" clip-rule="evenodd" d="M6.44313 793.826C9.51169 793.826 12.0223 791.323 12.0223 788.246C12.0223 785.169 9.51169 782.667 6.44313 782.667C3.36611 782.667 0.855469 785.169 0.855469 788.246C0.855469 791.323 3.36611 793.826 6.44313 793.826Z" fill="#737373"/>
<path fill-rule="evenodd" clip-rule="evenodd" d="M62.3168 793.825C65.4023 793.825 67.9045 791.323 67.9045 788.246C67.9045 785.169 65.4023 782.667 62.3168 782.667C59.2483 782.667 56.7461 785.169 56.7461 788.246C56.7461 791.323 59.2483 793.825 62.3168 793.825Z" fill="#737373"/>
<path fill-rule="evenodd" clip-rule="evenodd" d="M118.204 793.825C121.281 793.825 123.783 791.323 123.783 788.246C123.783 785.169 121.281 782.667 118.204 782.667C115.127 782.667 112.625 785.169 112.625 788.246C112.625 791.323 115.127 793.825 118.204 793.825Z" fill="#737373"/>
<path fill-rule="evenodd" clip-rule="evenodd" d="M174.083 793.826C177.16 793.826 179.662 791.323 179.662 788.246C179.662 785.169 177.16 782.667 174.083 782.667C171.014 782.667 168.504 785.169 168.504 788.246C168.504 791.323 171.014 793.826 174.083 793.826Z" fill="#737373"/>
<path fill-rule="evenodd" clip-rule="evenodd" d="M229.97 793.825C233.039 793.825 235.541 791.323 235.541 788.246C235.541 785.169 233.039 782.667 229.97 782.667C226.893 782.667 224.383 785.169 224.383 788.246C224.383 791.323 226.893 793.825 229.97 793.825Z" fill="#737373"/>
<path fill-rule="evenodd" clip-rule="evenodd" d="M285.849 793.825C288.926 793.825 291.428 791.323 291.428 788.246C291.428 785.169 288.926 782.667 285.849 782.667C282.772 782.667 280.27 785.169 280.27 788.246C280.27 791.323 282.772 793.825 285.849 793.825Z" fill="#737373"/>
<path fill-rule="evenodd" clip-rule="evenodd" d="M6.44313 849.704C9.51169 849.704 12.0223 847.211 12.0223 844.125C12.0223 841.04 9.51169 838.546 6.44313 838.546C3.36611 838.546 0.855469 841.04 0.855469 844.125C0.855469 847.211 3.36611 849.704 6.44313 849.704Z" fill="#737373"/>
<path fill-rule="evenodd" clip-rule="evenodd" d="M62.3168 849.704C65.4023 849.704 67.9045 847.211 67.9045 844.125C67.9045 841.04 65.4023 838.546 62.3168 838.546C59.2483 838.546 56.7461 841.04 56.7461 844.125C56.7461 847.211 59.2483 849.704 62.3168 849.704Z" fill="#737373"/>
<path fill-rule="evenodd" clip-rule="evenodd" d="M118.204 849.704C121.281 849.704 123.783 847.211 123.783 844.125C123.783 841.04 121.281 838.546 118.204 838.546C115.127 838.546 112.625 841.04 112.625 844.125C112.625 847.211 115.127 849.704 118.204 849.704Z" fill="#737373"/>
<path fill-rule="evenodd" clip-rule="evenodd" d="M174.083 849.704C177.16 849.704 179.662 847.211 179.662 844.125C179.662 841.04 177.16 838.546 174.083 838.546C171.015 838.546 168.504 841.04 168.504 844.125C168.504 847.211 171.015 849.704 174.083 849.704Z" fill="#737373"/>
<path fill-rule="evenodd" clip-rule="evenodd" d="M229.97 849.704C233.039 849.704 235.541 847.211 235.541 844.125C235.541 841.04 233.039 838.546 229.97 838.546C226.893 838.546 224.383 841.04 224.383 844.125C224.383 847.211 226.893 849.704 229.97 849.704Z" fill="#737373"/>
<path fill-rule="evenodd" clip-rule="evenodd" d="M285.849 849.704C288.926 849.704 291.428 847.211 291.428 844.125C291.428 841.04 288.926 838.546 285.849 838.546C282.772 838.546 280.27 841.04 280.27 844.125C280.27 847.211 282.772 849.704 285.849 849.704Z" fill="#737373"/>
<path fill-rule="evenodd" clip-rule="evenodd" d="M6.44313 905.594C9.51169 905.594 12.0223 903.092 12.0223 900.015C12.0223 896.929 9.51169 894.436 6.44313 894.436C3.36611 894.436 0.855469 896.929 0.855469 900.015C0.855469 903.092 3.36611 905.594 6.44313 905.594Z" fill="#737373"/>
<path fill-rule="evenodd" clip-rule="evenodd" d="M62.3168 905.594C65.4023 905.594 67.9045 903.092 67.9045 900.015C67.9045 896.929 65.4023 894.436 62.3168 894.436C59.2483 894.436 56.7461 896.929 56.7461 900.015C56.7461 903.092 59.2483 905.594 62.3168 905.594Z" fill="#737373"/>
<path fill-rule="evenodd" clip-rule="evenodd" d="M118.204 905.594C121.281 905.594 123.783 903.092 123.783 900.015C123.783 896.929 121.281 894.436 118.204 894.436C115.127 894.436 112.625 896.929 112.625 900.015C112.625 903.092 115.127 905.594 118.204 905.594Z" fill="#737373"/>
<path fill-rule="evenodd" clip-rule="evenodd" d="M174.083 905.594C177.16 905.594 179.662 903.092 179.662 900.015C179.662 896.929 177.16 894.436 174.083 894.436C171.015 894.436 168.504 896.929 168.504 900.015C168.504 903.092 171.015 905.594 174.083 905.594Z" fill="#737373"/>
<path fill-rule="evenodd" clip-rule="evenodd" d="M229.97 905.594C233.039 905.594 235.541 903.092 235.541 900.015C235.541 896.929 233.039 894.436 229.97 894.436C226.893 894.436 224.383 896.929 224.383 900.015C224.383 903.092 226.893 905.594 229.97 905.594Z" fill="#737373"/>
<path fill-rule="evenodd" clip-rule="evenodd" d="M285.849 905.594C288.926 905.594 291.428 903.092 291.428 900.015C291.428 896.929 288.926 894.436 285.849 894.436C282.772 894.436 280.27 896.929 280.27 900.015C280.27 903.092 282.772 905.594 285.849 905.594Z" fill="#737373"/>
<path fill-rule="evenodd" clip-rule="evenodd" d="M6.44313 961.463C9.51169 961.463 12.0223 958.969 12.0223 955.884C12.0223 952.815 9.51169 950.305 6.44313 950.305C3.36611 950.305 0.855469 952.815 0.855469 955.884C0.855469 958.969 3.36611 961.463 6.44313 961.463Z" fill="#737373"/>
<path fill-rule="evenodd" clip-rule="evenodd" d="M62.3168 961.463C65.4023 961.463 67.9045 958.969 67.9045 955.884C67.9045 952.815 65.4023 950.305 62.3168 950.305C59.2483 950.305 56.7461 952.815 56.7461 955.884C56.7461 958.969 59.2483 961.463 62.3168 961.463Z" fill="#737373"/>
<path fill-rule="evenodd" clip-rule="evenodd" d="M118.204 961.463C121.281 961.463 123.783 958.969 123.783 955.884C123.783 952.815 121.281 950.305 118.204 950.305C115.127 950.305 112.625 952.815 112.625 955.884C112.625 958.969 115.127 961.463 118.204 961.463Z" fill="#737373"/>
<path fill-rule="evenodd" clip-rule="evenodd" d="M174.083 961.463C177.16 961.463 179.662 958.969 179.662 955.884C179.662 952.815 177.16 950.305 174.083 950.305C171.015 950.305 168.504 952.815 168.504 955.884C168.504 958.969 171.015 961.463 174.083 961.463Z" fill="#737373"/>
<path fill-rule="evenodd" clip-rule="evenodd" d="M229.97 961.463C233.039 961.463 235.541 958.969 235.541 955.884C235.541 952.815 233.039 950.305 229.97 950.305C226.893 950.305 224.383 952.815 224.383 955.884C224.383 958.969 226.893 961.463 229.97 961.463Z" fill="#737373"/>
<path fill-rule="evenodd" clip-rule="evenodd" d="M285.849 961.463C288.926 961.463 291.428 958.969 291.428 955.884C291.428 952.815 288.926 950.305 285.849 950.305C282.772 950.305 280.27 952.815 280.27 955.884C280.27 958.969 282.772 961.463 285.849 961.463Z" fill="#737373"/>
<path fill-rule="evenodd" clip-rule="evenodd" d="M6.44313 1017.35C9.51169 1017.35 12.0223 1014.86 12.0223 1011.77C12.0223 1008.69 9.51169 1006.19 6.44313 1006.19C3.36611 1006.19 0.855469 1008.69 0.855469 1011.77C0.855469 1014.86 3.36611 1017.35 6.44313 1017.35Z" fill="#737373"/>
<path fill-rule="evenodd" clip-rule="evenodd" d="M62.3168 1017.35C65.4023 1017.35 67.9045 1014.86 67.9045 1011.77C67.9045 1008.69 65.4023 1006.19 62.3168 1006.19C59.2483 1006.19 56.7461 1008.69 56.7461 1011.77C56.7461 1014.86 59.2483 1017.35 62.3168 1017.35Z" fill="#737373"/>
<path fill-rule="evenodd" clip-rule="evenodd" d="M118.204 1017.35C121.281 1017.35 123.783 1014.86 123.783 1011.77C123.783 1008.69 121.281 1006.19 118.204 1006.19C115.127 1006.19 112.625 1008.69 112.625 1011.77C112.625 1014.86 115.127 1017.35 118.204 1017.35Z" fill="#737373"/>
<path fill-rule="evenodd" clip-rule="evenodd" d="M174.083 1017.35C177.16 1017.35 179.662 1014.86 179.662 1011.77C179.662 1008.69 177.16 1006.19 174.083 1006.19C171.015 1006.19 168.504 1008.69 168.504 1011.77C168.504 1014.86 171.015 1017.35 174.083 1017.35Z" fill="#737373"/>
<path fill-rule="evenodd" clip-rule="evenodd" d="M229.97 1017.35C233.039 1017.35 235.541 1014.86 235.541 1011.77C235.541 1008.69 233.039 1006.19 229.97 1006.19C226.893 1006.19 224.383 1008.69 224.383 1011.77C224.383 1014.86 226.893 1017.35 229.97 1017.35Z" fill="#737373"/>
<path fill-rule="evenodd" clip-rule="evenodd" d="M285.849 1017.35C288.926 1017.35 291.428 1014.86 291.428 1011.77C291.428 1008.69 288.926 1006.19 285.849 1006.19C282.772 1006.19 280.27 1008.69 280.27 1011.77C280.27 1014.86 282.772 1017.35 285.849 1017.35Z" fill="#737373"/>
</g>
</svg>
