<svg width="291" height="1018" viewBox="0 0 291 1018" fill="none" xmlns="http://www.w3.org/2000/svg">
<g opacity="0.15">
<path fill-rule="evenodd" clip-rule="evenodd" d="M5.76344 11.1584C8.832 11.1584 11.3426 8.65622 11.3426 5.57921C11.3426 2.49374 8.832 0 5.76344 0C2.68642 0 0.175781 2.49374 0.175781 5.57921C0.175781 8.65622 2.68642 11.1584 5.76344 11.1584Z" fill="#737373"/>
<path fill-rule="evenodd" clip-rule="evenodd" d="M61.6372 11.1584C64.7226 11.1584 67.2248 8.65622 67.2248 5.57921C67.2248 2.49374 64.7226 0 61.6372 0C58.5686 0 56.0664 2.49374 56.0664 5.57921C56.0664 8.65622 58.5686 11.1584 61.6372 11.1584Z" fill="#737373"/>
<path fill-rule="evenodd" clip-rule="evenodd" d="M117.525 11.1584C120.602 11.1584 123.104 8.65622 123.104 5.57921C123.104 2.49374 120.602 0 117.525 0C114.448 0 111.945 2.49374 111.945 5.57921C111.945 8.65622 114.448 11.1584 117.525 11.1584Z" fill="#737373"/>
<path fill-rule="evenodd" clip-rule="evenodd" d="M173.403 11.1584C176.48 11.1584 178.982 8.65622 178.982 5.57921C178.982 2.49374 176.48 0 173.403 0C170.335 0 167.824 2.49374 167.824 5.57921C167.824 8.65622 170.335 11.1584 173.403 11.1584Z" fill="#737373"/>
<path fill-rule="evenodd" clip-rule="evenodd" d="M229.291 11.1584C232.359 11.1584 234.862 8.65622 234.862 5.57921C234.862 2.49374 232.359 0 229.291 0C226.214 0 223.703 2.49374 223.703 5.57921C223.703 8.65622 226.214 11.1584 229.291 11.1584Z" fill="#737373"/>
<path fill-rule="evenodd" clip-rule="evenodd" d="M285.169 11.1584C288.246 11.1584 290.748 8.65622 290.748 5.57921C290.748 2.49374 288.246 0 285.169 0C282.092 0 279.59 2.49374 279.59 5.57921C279.59 8.65622 282.092 11.1584 285.169 11.1584Z" fill="#737373"/>
<path fill-rule="evenodd" clip-rule="evenodd" d="M5.76344 67.0298C8.832 67.0298 11.3426 64.536 11.3426 61.4505C11.3426 58.3735 8.832 55.8713 5.76344 55.8713C2.68642 55.8713 0.175781 58.3735 0.175781 61.4505C0.175781 64.536 2.68642 67.0298 5.76344 67.0298Z" fill="#737373"/>
<path fill-rule="evenodd" clip-rule="evenodd" d="M61.6372 67.0295C64.7226 67.0295 67.2248 64.5358 67.2248 61.4503C67.2248 58.3733 64.7226 55.8711 61.6372 55.8711C58.5686 55.8711 56.0664 58.3733 56.0664 61.4503C56.0664 64.5358 58.5686 67.0295 61.6372 67.0295Z" fill="#737373"/>
<path fill-rule="evenodd" clip-rule="evenodd" d="M117.525 67.0295C120.602 67.0295 123.104 64.5358 123.104 61.4503C123.104 58.3733 120.602 55.8711 117.525 55.8711C114.448 55.8711 111.945 58.3733 111.945 61.4503C111.945 64.5358 114.448 67.0295 117.525 67.0295Z" fill="#737373"/>
<path fill-rule="evenodd" clip-rule="evenodd" d="M173.403 67.0298C176.48 67.0298 178.982 64.536 178.982 61.4505C178.982 58.3735 176.48 55.8713 173.403 55.8713C170.335 55.8713 167.824 58.3735 167.824 61.4505C167.824 64.536 170.335 67.0298 173.403 67.0298Z" fill="#737373"/>
<path fill-rule="evenodd" clip-rule="evenodd" d="M229.291 67.0295C232.359 67.0295 234.862 64.5358 234.862 61.4503C234.862 58.3733 232.359 55.8711 229.291 55.8711C226.214 55.8711 223.703 58.3733 223.703 61.4503C223.703 64.5358 226.214 67.0295 229.291 67.0295Z" fill="#737373"/>
<path fill-rule="evenodd" clip-rule="evenodd" d="M285.169 67.0295C288.246 67.0295 290.748 64.5358 290.748 61.4503C290.748 58.3733 288.246 55.8711 285.169 55.8711C282.092 55.8711 279.59 58.3733 279.59 61.4503C279.59 64.5358 282.092 67.0295 285.169 67.0295Z" fill="#737373"/>
<path fill-rule="evenodd" clip-rule="evenodd" d="M5.76344 122.918C8.832 122.918 11.3426 120.424 11.3426 117.339C11.3426 114.253 8.832 111.76 5.76344 111.76C2.68642 111.76 0.175781 114.253 0.175781 117.339C0.175781 120.424 2.68642 122.918 5.76344 122.918Z" fill="#737373"/>
<path fill-rule="evenodd" clip-rule="evenodd" d="M61.6372 122.918C64.7226 122.918 67.2248 120.424 67.2248 117.339C67.2248 114.254 64.7226 111.76 61.6372 111.76C58.5686 111.76 56.0664 114.254 56.0664 117.339C56.0664 120.424 58.5686 122.918 61.6372 122.918Z" fill="#737373"/>
<path fill-rule="evenodd" clip-rule="evenodd" d="M117.525 122.918C120.602 122.918 123.104 120.424 123.104 117.339C123.104 114.254 120.602 111.76 117.525 111.76C114.448 111.76 111.945 114.254 111.945 117.339C111.945 120.424 114.448 122.918 117.525 122.918Z" fill="#737373"/>
<path fill-rule="evenodd" clip-rule="evenodd" d="M173.403 122.918C176.48 122.918 178.982 120.424 178.982 117.339C178.982 114.253 176.48 111.76 173.403 111.76C170.335 111.76 167.824 114.253 167.824 117.339C167.824 120.424 170.335 122.918 173.403 122.918Z" fill="#737373"/>
<path fill-rule="evenodd" clip-rule="evenodd" d="M229.291 122.918C232.359 122.918 234.862 120.424 234.862 117.339C234.862 114.254 232.359 111.76 229.291 111.76C226.214 111.76 223.703 114.254 223.703 117.339C223.703 120.424 226.214 122.918 229.291 122.918Z" fill="#737373"/>
<path fill-rule="evenodd" clip-rule="evenodd" d="M285.169 122.918C288.246 122.918 290.748 120.424 290.748 117.339C290.748 114.254 288.246 111.76 285.169 111.76C282.092 111.76 279.59 114.254 279.59 117.339C279.59 120.424 282.092 122.918 285.169 122.918Z" fill="#737373"/>
<path fill-rule="evenodd" clip-rule="evenodd" d="M5.76344 178.798C8.832 178.798 11.3426 176.296 11.3426 173.219C11.3426 170.142 8.832 167.648 5.76344 167.648C2.68642 167.648 0.175781 170.142 0.175781 173.219C0.175781 176.296 2.68642 178.798 5.76344 178.798Z" fill="#737373"/>
<path fill-rule="evenodd" clip-rule="evenodd" d="M61.6372 178.798C64.7226 178.798 67.2248 176.296 67.2248 173.219C67.2248 170.142 64.7226 167.648 61.6372 167.648C58.5686 167.648 56.0664 170.142 56.0664 173.219C56.0664 176.296 58.5686 178.798 61.6372 178.798Z" fill="#737373"/>
<path fill-rule="evenodd" clip-rule="evenodd" d="M117.525 178.798C120.602 178.798 123.104 176.296 123.104 173.219C123.104 170.142 120.602 167.648 117.525 167.648C114.448 167.648 111.945 170.142 111.945 173.219C111.945 176.296 114.448 178.798 117.525 178.798Z" fill="#737373"/>
<path fill-rule="evenodd" clip-rule="evenodd" d="M173.403 178.798C176.48 178.798 178.983 176.296 178.983 173.219C178.983 170.142 176.48 167.648 173.403 167.648C170.335 167.648 167.824 170.142 167.824 173.219C167.824 176.296 170.335 178.798 173.403 178.798Z" fill="#737373"/>
<path fill-rule="evenodd" clip-rule="evenodd" d="M229.291 178.798C232.359 178.798 234.862 176.296 234.862 173.219C234.862 170.142 232.359 167.648 229.291 167.648C226.214 167.648 223.703 170.142 223.703 173.219C223.703 176.296 226.214 178.798 229.291 178.798Z" fill="#737373"/>
<path fill-rule="evenodd" clip-rule="evenodd" d="M285.169 178.798C288.246 178.798 290.748 176.296 290.748 173.219C290.748 170.142 288.246 167.648 285.169 167.648C282.092 167.648 279.59 170.142 279.59 173.219C279.59 176.296 282.092 178.798 285.169 178.798Z" fill="#737373"/>
<path fill-rule="evenodd" clip-rule="evenodd" d="M5.76344 234.678C8.832 234.678 11.3426 232.184 11.3426 229.099C11.3426 226.022 8.832 223.52 5.76344 223.52C2.68642 223.52 0.175781 226.022 0.175781 229.099C0.175781 232.184 2.68642 234.678 5.76344 234.678Z" fill="#737373"/>
<path fill-rule="evenodd" clip-rule="evenodd" d="M61.6372 234.678C64.7226 234.678 67.2248 232.184 67.2248 229.099C67.2248 226.022 64.7226 223.52 61.6372 223.52C58.5686 223.52 56.0664 226.022 56.0664 229.099C56.0664 232.184 58.5686 234.678 61.6372 234.678Z" fill="#737373"/>
<path fill-rule="evenodd" clip-rule="evenodd" d="M117.525 234.678C120.602 234.678 123.104 232.184 123.104 229.099C123.104 226.022 120.602 223.52 117.525 223.52C114.448 223.52 111.945 226.022 111.945 229.099C111.945 232.184 114.448 234.678 117.525 234.678Z" fill="#737373"/>
<path fill-rule="evenodd" clip-rule="evenodd" d="M173.403 234.678C176.48 234.678 178.983 232.184 178.983 229.099C178.983 226.022 176.48 223.52 173.403 223.52C170.335 223.52 167.824 226.022 167.824 229.099C167.824 232.184 170.335 234.678 173.403 234.678Z" fill="#737373"/>
<path fill-rule="evenodd" clip-rule="evenodd" d="M229.291 234.678C232.359 234.678 234.862 232.184 234.862 229.099C234.862 226.022 232.359 223.52 229.291 223.52C226.214 223.52 223.703 226.022 223.703 229.099C223.703 232.184 226.214 234.678 229.291 234.678Z" fill="#737373"/>
<path fill-rule="evenodd" clip-rule="evenodd" d="M285.169 234.678C288.246 234.678 290.748 232.184 290.748 229.099C290.748 226.022 288.246 223.52 285.169 223.52C282.092 223.52 279.59 226.022 279.59 229.099C279.59 232.184 282.092 234.678 285.169 234.678Z" fill="#737373"/>
<path fill-rule="evenodd" clip-rule="evenodd" d="M5.76344 290.565C8.832 290.565 11.3426 288.071 11.3426 284.985C11.3426 281.9 8.832 279.406 5.76344 279.406C2.68642 279.406 0.175781 281.9 0.175781 284.985C0.175781 288.071 2.68642 290.565 5.76344 290.565Z" fill="#737373"/>
<path fill-rule="evenodd" clip-rule="evenodd" d="M61.6372 290.565C64.7226 290.565 67.2248 288.071 67.2248 284.985C67.2248 281.9 64.7226 279.406 61.6372 279.406C58.5686 279.406 56.0664 281.9 56.0664 284.985C56.0664 288.071 58.5686 290.565 61.6372 290.565Z" fill="#737373"/>
<path fill-rule="evenodd" clip-rule="evenodd" d="M117.525 290.565C120.602 290.565 123.104 288.071 123.104 284.985C123.104 281.9 120.602 279.406 117.525 279.406C114.448 279.406 111.945 281.9 111.945 284.985C111.945 288.071 114.448 290.565 117.525 290.565Z" fill="#737373"/>
<path fill-rule="evenodd" clip-rule="evenodd" d="M173.403 290.565C176.48 290.565 178.983 288.071 178.983 284.985C178.983 281.9 176.48 279.406 173.403 279.406C170.335 279.406 167.824 281.9 167.824 284.985C167.824 288.071 170.335 290.565 173.403 290.565Z" fill="#737373"/>
<path fill-rule="evenodd" clip-rule="evenodd" d="M229.291 290.565C232.359 290.565 234.862 288.071 234.862 284.985C234.862 281.9 232.359 279.406 229.291 279.406C226.214 279.406 223.703 281.9 223.703 284.985C223.703 288.071 226.214 290.565 229.291 290.565Z" fill="#737373"/>
<path fill-rule="evenodd" clip-rule="evenodd" d="M285.169 290.565C288.246 290.565 290.748 288.071 290.748 284.985C290.748 281.9 288.246 279.406 285.169 279.406C282.092 279.406 279.59 281.9 279.59 284.985C279.59 288.071 282.092 290.565 285.169 290.565Z" fill="#737373"/>
<path fill-rule="evenodd" clip-rule="evenodd" d="M5.76344 346.446C8.832 346.446 11.3426 343.943 11.3426 340.866C11.3426 337.789 8.832 335.287 5.76344 335.287C2.68642 335.287 0.175781 337.789 0.175781 340.866C0.175781 343.943 2.68642 346.446 5.76344 346.446Z" fill="#737373"/>
<path fill-rule="evenodd" clip-rule="evenodd" d="M61.6372 346.446C64.7226 346.446 67.2248 343.943 67.2248 340.866C67.2248 337.789 64.7226 335.287 61.6372 335.287C58.5686 335.287 56.0664 337.789 56.0664 340.866C56.0664 343.943 58.5686 346.446 61.6372 346.446Z" fill="#737373"/>
<path fill-rule="evenodd" clip-rule="evenodd" d="M117.525 346.446C120.602 346.446 123.104 343.943 123.104 340.866C123.104 337.789 120.602 335.287 117.525 335.287C114.448 335.287 111.945 337.789 111.945 340.866C111.945 343.943 114.448 346.446 117.525 346.446Z" fill="#737373"/>
<path fill-rule="evenodd" clip-rule="evenodd" d="M173.403 346.446C176.48 346.446 178.982 343.943 178.982 340.866C178.982 337.789 176.48 335.287 173.403 335.287C170.335 335.287 167.824 337.789 167.824 340.866C167.824 343.943 170.335 346.446 173.403 346.446Z" fill="#737373"/>
<path fill-rule="evenodd" clip-rule="evenodd" d="M229.291 346.446C232.359 346.446 234.862 343.943 234.862 340.866C234.862 337.789 232.359 335.287 229.291 335.287C226.214 335.287 223.703 337.789 223.703 340.866C223.703 343.943 226.214 346.446 229.291 346.446Z" fill="#737373"/>
<path fill-rule="evenodd" clip-rule="evenodd" d="M285.169 346.446C288.246 346.446 290.748 343.943 290.748 340.866C290.748 337.789 288.246 335.287 285.169 335.287C282.092 335.287 279.59 337.789 279.59 340.866C279.59 343.943 282.092 346.446 285.169 346.446Z" fill="#737373"/>
<path fill-rule="evenodd" clip-rule="evenodd" d="M5.76344 402.323C8.832 402.323 11.3426 399.83 11.3426 396.744C11.3426 393.659 8.832 391.165 5.76344 391.165C2.68642 391.165 0.175781 393.659 0.175781 396.744C0.175781 399.83 2.68642 402.323 5.76344 402.323Z" fill="#737373"/>
<path fill-rule="evenodd" clip-rule="evenodd" d="M61.6372 402.323C64.7226 402.323 67.2248 399.83 67.2248 396.744C67.2248 393.659 64.7226 391.165 61.6372 391.165C58.5686 391.165 56.0664 393.659 56.0664 396.744C56.0664 399.83 58.5686 402.323 61.6372 402.323Z" fill="#737373"/>
<path fill-rule="evenodd" clip-rule="evenodd" d="M117.525 402.323C120.602 402.323 123.104 399.83 123.104 396.744C123.104 393.659 120.602 391.165 117.525 391.165C114.448 391.165 111.945 393.659 111.945 396.744C111.945 399.83 114.448 402.323 117.525 402.323Z" fill="#737373"/>
<path fill-rule="evenodd" clip-rule="evenodd" d="M173.403 402.323C176.48 402.323 178.983 399.83 178.983 396.744C178.983 393.659 176.48 391.165 173.403 391.165C170.335 391.165 167.824 393.659 167.824 396.744C167.824 399.83 170.335 402.323 173.403 402.323Z" fill="#737373"/>
<path fill-rule="evenodd" clip-rule="evenodd" d="M229.291 402.323C232.359 402.323 234.862 399.83 234.862 396.744C234.862 393.659 232.359 391.165 229.291 391.165C226.214 391.165 223.703 393.659 223.703 396.744C223.703 399.83 226.214 402.323 229.291 402.323Z" fill="#737373"/>
<path fill-rule="evenodd" clip-rule="evenodd" d="M285.169 402.323C288.246 402.323 290.748 399.83 290.748 396.744C290.748 393.659 288.246 391.165 285.169 391.165C282.092 391.165 279.59 393.659 279.59 396.744C279.59 399.83 282.092 402.323 285.169 402.323Z" fill="#737373"/>
<path fill-rule="evenodd" clip-rule="evenodd" d="M5.76344 458.212C8.832 458.212 11.3426 455.71 11.3426 452.633C11.3426 449.548 8.832 447.054 5.76344 447.054C2.68642 447.054 0.175781 449.548 0.175781 452.633C0.175781 455.71 2.68642 458.212 5.76344 458.212Z" fill="#737373"/>
<path fill-rule="evenodd" clip-rule="evenodd" d="M61.6372 458.212C64.7226 458.212 67.2248 455.71 67.2248 452.633C67.2248 449.547 64.7226 447.054 61.6372 447.054C58.5686 447.054 56.0664 449.547 56.0664 452.633C56.0664 455.71 58.5686 458.212 61.6372 458.212Z" fill="#737373"/>
<path fill-rule="evenodd" clip-rule="evenodd" d="M117.525 458.212C120.602 458.212 123.104 455.71 123.104 452.633C123.104 449.547 120.602 447.054 117.525 447.054C114.448 447.054 111.945 449.547 111.945 452.633C111.945 455.71 114.448 458.212 117.525 458.212Z" fill="#737373"/>
<path fill-rule="evenodd" clip-rule="evenodd" d="M173.403 458.212C176.48 458.212 178.982 455.71 178.982 452.633C178.982 449.548 176.48 447.054 173.403 447.054C170.335 447.054 167.824 449.548 167.824 452.633C167.824 455.71 170.335 458.212 173.403 458.212Z" fill="#737373"/>
<path fill-rule="evenodd" clip-rule="evenodd" d="M229.291 458.212C232.359 458.212 234.862 455.71 234.862 452.633C234.862 449.547 232.359 447.054 229.291 447.054C226.214 447.054 223.703 449.547 223.703 452.633C223.703 455.71 226.214 458.212 229.291 458.212Z" fill="#737373"/>
<path fill-rule="evenodd" clip-rule="evenodd" d="M285.169 458.212C288.246 458.212 290.748 455.71 290.748 452.633C290.748 449.547 288.246 447.054 285.169 447.054C282.092 447.054 279.59 449.547 279.59 452.633C279.59 455.71 282.092 458.212 285.169 458.212Z" fill="#737373"/>
<path fill-rule="evenodd" clip-rule="evenodd" d="M5.76344 514.083C8.832 514.083 11.3426 511.589 11.3426 508.504C11.3426 505.435 8.832 502.925 5.76344 502.925C2.68642 502.925 0.175781 505.435 0.175781 508.504C0.175781 511.589 2.68642 514.083 5.76344 514.083Z" fill="#737373"/>
<path fill-rule="evenodd" clip-rule="evenodd" d="M61.6372 514.083C64.7226 514.083 67.2248 511.589 67.2248 508.504C67.2248 505.435 64.7226 502.925 61.6372 502.925C58.5686 502.925 56.0664 505.435 56.0664 508.504C56.0664 511.589 58.5686 514.083 61.6372 514.083Z" fill="#737373"/>
<path fill-rule="evenodd" clip-rule="evenodd" d="M117.525 514.083C120.602 514.083 123.104 511.589 123.104 508.504C123.104 505.435 120.602 502.925 117.525 502.925C114.448 502.925 111.945 505.435 111.945 508.504C111.945 511.589 114.448 514.083 117.525 514.083Z" fill="#737373"/>
<path fill-rule="evenodd" clip-rule="evenodd" d="M173.403 514.083C176.48 514.083 178.983 511.589 178.983 508.504C178.983 505.435 176.48 502.925 173.403 502.925C170.335 502.925 167.824 505.435 167.824 508.504C167.824 511.589 170.335 514.083 173.403 514.083Z" fill="#737373"/>
<path fill-rule="evenodd" clip-rule="evenodd" d="M229.291 514.083C232.359 514.083 234.862 511.589 234.862 508.504C234.862 505.435 232.359 502.925 229.291 502.925C226.214 502.925 223.703 505.435 223.703 508.504C223.703 511.589 226.214 514.083 229.291 514.083Z" fill="#737373"/>
<path fill-rule="evenodd" clip-rule="evenodd" d="M285.169 514.083C288.246 514.083 290.748 511.589 290.748 508.504C290.748 505.435 288.246 502.925 285.169 502.925C282.092 502.925 279.59 505.435 279.59 508.504C279.59 511.589 282.092 514.083 285.169 514.083Z" fill="#737373"/>
<path fill-rule="evenodd" clip-rule="evenodd" d="M5.76344 569.97C8.832 569.97 11.3426 567.476 11.3426 564.391C11.3426 561.305 8.832 558.812 5.76344 558.812C2.68642 558.812 0.175781 561.305 0.175781 564.391C0.175781 567.476 2.68642 569.97 5.76344 569.97Z" fill="#737373"/>
<path fill-rule="evenodd" clip-rule="evenodd" d="M61.6372 569.97C64.7226 569.97 67.2248 567.476 67.2248 564.391C67.2248 561.305 64.7226 558.812 61.6372 558.812C58.5686 558.812 56.0664 561.305 56.0664 564.391C56.0664 567.476 58.5686 569.97 61.6372 569.97Z" fill="#737373"/>
<path fill-rule="evenodd" clip-rule="evenodd" d="M117.525 569.97C120.602 569.97 123.104 567.476 123.104 564.391C123.104 561.305 120.602 558.812 117.525 558.812C114.448 558.812 111.945 561.305 111.945 564.391C111.945 567.476 114.448 569.97 117.525 569.97Z" fill="#737373"/>
<path fill-rule="evenodd" clip-rule="evenodd" d="M173.403 569.97C176.48 569.97 178.983 567.476 178.983 564.391C178.983 561.305 176.48 558.812 173.403 558.812C170.335 558.812 167.824 561.305 167.824 564.391C167.824 567.476 170.335 569.97 173.403 569.97Z" fill="#737373"/>
<path fill-rule="evenodd" clip-rule="evenodd" d="M229.291 569.97C232.359 569.97 234.862 567.476 234.862 564.391C234.862 561.305 232.359 558.812 229.291 558.812C226.214 558.812 223.703 561.305 223.703 564.391C223.703 567.476 226.214 569.97 229.291 569.97Z" fill="#737373"/>
<path fill-rule="evenodd" clip-rule="evenodd" d="M285.169 569.97C288.246 569.97 290.748 567.476 290.748 564.391C290.748 561.305 288.246 558.812 285.169 558.812C282.092 558.812 279.59 561.305 279.59 564.391C279.59 567.476 282.092 569.97 285.169 569.97Z" fill="#737373"/>
<path fill-rule="evenodd" clip-rule="evenodd" d="M5.76344 625.852C8.832 625.852 11.3426 623.35 11.3426 620.281C11.3426 617.196 8.832 614.702 5.76344 614.702C2.68642 614.702 0.175781 617.196 0.175781 620.281C0.175781 623.35 2.68642 625.852 5.76344 625.852Z" fill="#737373"/>
<path fill-rule="evenodd" clip-rule="evenodd" d="M61.6372 625.852C64.7226 625.852 67.2248 623.35 67.2248 620.281C67.2248 617.196 64.7226 614.702 61.6372 614.702C58.5686 614.702 56.0664 617.196 56.0664 620.281C56.0664 623.35 58.5686 625.852 61.6372 625.852Z" fill="#737373"/>
<path fill-rule="evenodd" clip-rule="evenodd" d="M117.525 625.852C120.602 625.852 123.104 623.35 123.104 620.281C123.104 617.196 120.602 614.702 117.525 614.702C114.448 614.702 111.945 617.196 111.945 620.281C111.945 623.35 114.448 625.852 117.525 625.852Z" fill="#737373"/>
<path fill-rule="evenodd" clip-rule="evenodd" d="M173.403 625.852C176.48 625.852 178.982 623.35 178.982 620.281C178.982 617.196 176.48 614.702 173.403 614.702C170.335 614.702 167.824 617.196 167.824 620.281C167.824 623.35 170.335 625.852 173.403 625.852Z" fill="#737373"/>
<path fill-rule="evenodd" clip-rule="evenodd" d="M229.291 625.852C232.359 625.852 234.862 623.35 234.862 620.281C234.862 617.196 232.359 614.702 229.291 614.702C226.214 614.702 223.703 617.196 223.703 620.281C223.703 623.35 226.214 625.852 229.291 625.852Z" fill="#737373"/>
<path fill-rule="evenodd" clip-rule="evenodd" d="M285.169 625.852C288.246 625.852 290.748 623.35 290.748 620.281C290.748 617.196 288.246 614.702 285.169 614.702C282.092 614.702 279.59 617.196 279.59 620.281C279.59 623.35 282.092 625.852 285.169 625.852Z" fill="#737373"/>
<path fill-rule="evenodd" clip-rule="evenodd" d="M5.76344 681.73C8.832 681.73 11.3426 679.236 11.3426 676.151C11.3426 673.074 8.832 670.571 5.76344 670.571C2.68642 670.571 0.175781 673.074 0.175781 676.151C0.175781 679.236 2.68642 681.73 5.76344 681.73Z" fill="#737373"/>
<path fill-rule="evenodd" clip-rule="evenodd" d="M61.6372 681.73C64.7226 681.73 67.2248 679.236 67.2248 676.15C67.2248 673.073 64.7226 670.571 61.6372 670.571C58.5686 670.571 56.0664 673.073 56.0664 676.15C56.0664 679.236 58.5686 681.73 61.6372 681.73Z" fill="#737373"/>
<path fill-rule="evenodd" clip-rule="evenodd" d="M117.525 681.73C120.602 681.73 123.104 679.236 123.104 676.15C123.104 673.073 120.602 670.571 117.525 670.571C114.448 670.571 111.945 673.073 111.945 676.15C111.945 679.236 114.448 681.73 117.525 681.73Z" fill="#737373"/>
<path fill-rule="evenodd" clip-rule="evenodd" d="M173.403 681.73C176.48 681.73 178.982 679.236 178.982 676.151C178.982 673.074 176.48 670.571 173.403 670.571C170.335 670.571 167.824 673.074 167.824 676.151C167.824 679.236 170.335 681.73 173.403 681.73Z" fill="#737373"/>
<path fill-rule="evenodd" clip-rule="evenodd" d="M229.291 681.73C232.359 681.73 234.862 679.236 234.862 676.15C234.862 673.073 232.359 670.571 229.291 670.571C226.214 670.571 223.703 673.073 223.703 676.15C223.703 679.236 226.214 681.73 229.291 681.73Z" fill="#737373"/>
<path fill-rule="evenodd" clip-rule="evenodd" d="M285.169 681.73C288.246 681.73 290.748 679.236 290.748 676.15C290.748 673.073 288.246 670.571 285.169 670.571C282.092 670.571 279.59 673.073 279.59 676.15C279.59 679.236 282.092 681.73 285.169 681.73Z" fill="#737373"/>
<path fill-rule="evenodd" clip-rule="evenodd" d="M5.76344 737.618C8.832 737.618 11.3426 735.124 11.3426 732.039C11.3426 728.953 8.832 726.46 5.76344 726.46C2.68642 726.46 0.175781 728.953 0.175781 732.039C0.175781 735.124 2.68642 737.618 5.76344 737.618Z" fill="#737373"/>
<path fill-rule="evenodd" clip-rule="evenodd" d="M61.6372 737.618C64.7226 737.618 67.2248 735.125 67.2248 732.039C67.2248 728.954 64.7226 726.46 61.6372 726.46C58.5686 726.46 56.0664 728.954 56.0664 732.039C56.0664 735.125 58.5686 737.618 61.6372 737.618Z" fill="#737373"/>
<path fill-rule="evenodd" clip-rule="evenodd" d="M117.525 737.618C120.602 737.618 123.104 735.125 123.104 732.039C123.104 728.954 120.602 726.46 117.525 726.46C114.448 726.46 111.945 728.954 111.945 732.039C111.945 735.125 114.448 737.618 117.525 737.618Z" fill="#737373"/>
<path fill-rule="evenodd" clip-rule="evenodd" d="M173.403 737.618C176.48 737.618 178.982 735.124 178.982 732.039C178.982 728.953 176.48 726.46 173.403 726.46C170.335 726.46 167.824 728.953 167.824 732.039C167.824 735.124 170.335 737.618 173.403 737.618Z" fill="#737373"/>
<path fill-rule="evenodd" clip-rule="evenodd" d="M229.291 737.618C232.359 737.618 234.862 735.125 234.862 732.039C234.862 728.954 232.359 726.46 229.291 726.46C226.214 726.46 223.703 728.954 223.703 732.039C223.703 735.125 226.214 737.618 229.291 737.618Z" fill="#737373"/>
<path fill-rule="evenodd" clip-rule="evenodd" d="M285.169 737.618C288.246 737.618 290.748 735.125 290.748 732.039C290.748 728.954 288.246 726.46 285.169 726.46C282.092 726.46 279.59 728.954 279.59 732.039C279.59 735.125 282.092 737.618 285.169 737.618Z" fill="#737373"/>
<path fill-rule="evenodd" clip-rule="evenodd" d="M5.76344 793.499C8.832 793.499 11.3426 790.997 11.3426 787.92C11.3426 784.843 8.832 782.341 5.76344 782.341C2.68642 782.341 0.175781 784.843 0.175781 787.92C0.175781 790.997 2.68642 793.499 5.76344 793.499Z" fill="#737373"/>
<path fill-rule="evenodd" clip-rule="evenodd" d="M61.6372 793.499C64.7226 793.499 67.2248 790.997 67.2248 787.92C67.2248 784.843 64.7226 782.341 61.6372 782.341C58.5686 782.341 56.0664 784.843 56.0664 787.92C56.0664 790.997 58.5686 793.499 61.6372 793.499Z" fill="#737373"/>
<path fill-rule="evenodd" clip-rule="evenodd" d="M117.525 793.499C120.602 793.499 123.104 790.997 123.104 787.92C123.104 784.843 120.602 782.341 117.525 782.341C114.448 782.341 111.945 784.843 111.945 787.92C111.945 790.997 114.448 793.499 117.525 793.499Z" fill="#737373"/>
<path fill-rule="evenodd" clip-rule="evenodd" d="M173.403 793.499C176.48 793.499 178.982 790.997 178.982 787.92C178.982 784.843 176.48 782.341 173.403 782.341C170.335 782.341 167.824 784.843 167.824 787.92C167.824 790.997 170.335 793.499 173.403 793.499Z" fill="#737373"/>
<path fill-rule="evenodd" clip-rule="evenodd" d="M229.291 793.499C232.359 793.499 234.862 790.997 234.862 787.92C234.862 784.843 232.359 782.341 229.291 782.341C226.214 782.341 223.703 784.843 223.703 787.92C223.703 790.997 226.214 793.499 229.291 793.499Z" fill="#737373"/>
<path fill-rule="evenodd" clip-rule="evenodd" d="M285.169 793.499C288.246 793.499 290.748 790.997 290.748 787.92C290.748 784.843 288.246 782.341 285.169 782.341C282.092 782.341 279.59 784.843 279.59 787.92C279.59 790.997 282.092 793.499 285.169 793.499Z" fill="#737373"/>
<path fill-rule="evenodd" clip-rule="evenodd" d="M5.76344 849.378C8.832 849.378 11.3426 846.884 11.3426 843.799C11.3426 840.713 8.832 838.22 5.76344 838.22C2.68642 838.22 0.175781 840.713 0.175781 843.799C0.175781 846.884 2.68642 849.378 5.76344 849.378Z" fill="#737373"/>
<path fill-rule="evenodd" clip-rule="evenodd" d="M61.6372 849.378C64.7226 849.378 67.2248 846.884 67.2248 843.799C67.2248 840.713 64.7226 838.22 61.6372 838.22C58.5686 838.22 56.0664 840.713 56.0664 843.799C56.0664 846.884 58.5686 849.378 61.6372 849.378Z" fill="#737373"/>
<path fill-rule="evenodd" clip-rule="evenodd" d="M117.525 849.378C120.602 849.378 123.104 846.884 123.104 843.799C123.104 840.713 120.602 838.22 117.525 838.22C114.448 838.22 111.945 840.713 111.945 843.799C111.945 846.884 114.448 849.378 117.525 849.378Z" fill="#737373"/>
<path fill-rule="evenodd" clip-rule="evenodd" d="M173.403 849.378C176.48 849.378 178.983 846.884 178.983 843.799C178.983 840.713 176.48 838.22 173.403 838.22C170.335 838.22 167.824 840.713 167.824 843.799C167.824 846.884 170.335 849.378 173.403 849.378Z" fill="#737373"/>
<path fill-rule="evenodd" clip-rule="evenodd" d="M229.291 849.378C232.359 849.378 234.862 846.884 234.862 843.799C234.862 840.713 232.359 838.22 229.291 838.22C226.214 838.22 223.703 840.713 223.703 843.799C223.703 846.884 226.214 849.378 229.291 849.378Z" fill="#737373"/>
<path fill-rule="evenodd" clip-rule="evenodd" d="M285.169 849.378C288.246 849.378 290.748 846.884 290.748 843.799C290.748 840.713 288.246 838.22 285.169 838.22C282.092 838.22 279.59 840.713 279.59 843.799C279.59 846.884 282.092 849.378 285.169 849.378Z" fill="#737373"/>
<path fill-rule="evenodd" clip-rule="evenodd" d="M5.76344 905.268C8.832 905.268 11.3426 902.766 11.3426 899.689C11.3426 896.603 8.832 894.109 5.76344 894.109C2.68642 894.109 0.175781 896.603 0.175781 899.689C0.175781 902.766 2.68642 905.268 5.76344 905.268Z" fill="#737373"/>
<path fill-rule="evenodd" clip-rule="evenodd" d="M61.6372 905.268C64.7226 905.268 67.2248 902.766 67.2248 899.689C67.2248 896.603 64.7226 894.109 61.6372 894.109C58.5686 894.109 56.0664 896.603 56.0664 899.689C56.0664 902.766 58.5686 905.268 61.6372 905.268Z" fill="#737373"/>
<path fill-rule="evenodd" clip-rule="evenodd" d="M117.525 905.268C120.602 905.268 123.104 902.766 123.104 899.689C123.104 896.603 120.602 894.109 117.525 894.109C114.448 894.109 111.945 896.603 111.945 899.689C111.945 902.766 114.448 905.268 117.525 905.268Z" fill="#737373"/>
<path fill-rule="evenodd" clip-rule="evenodd" d="M173.403 905.268C176.48 905.268 178.983 902.766 178.983 899.689C178.983 896.603 176.48 894.109 173.403 894.109C170.335 894.109 167.824 896.603 167.824 899.689C167.824 902.766 170.335 905.268 173.403 905.268Z" fill="#737373"/>
<path fill-rule="evenodd" clip-rule="evenodd" d="M229.291 905.268C232.359 905.268 234.862 902.766 234.862 899.689C234.862 896.603 232.359 894.109 229.291 894.109C226.214 894.109 223.703 896.603 223.703 899.689C223.703 902.766 226.214 905.268 229.291 905.268Z" fill="#737373"/>
<path fill-rule="evenodd" clip-rule="evenodd" d="M285.169 905.268C288.246 905.268 290.748 902.766 290.748 899.689C290.748 896.603 288.246 894.109 285.169 894.109C282.092 894.109 279.59 896.603 279.59 899.689C279.59 902.766 282.092 905.268 285.169 905.268Z" fill="#737373"/>
<path fill-rule="evenodd" clip-rule="evenodd" d="M5.76344 961.137C8.832 961.137 11.3426 958.643 11.3426 955.558C11.3426 952.489 8.832 949.979 5.76344 949.979C2.68642 949.979 0.175781 952.489 0.175781 955.558C0.175781 958.643 2.68642 961.137 5.76344 961.137Z" fill="#737373"/>
<path fill-rule="evenodd" clip-rule="evenodd" d="M61.6372 961.137C64.7226 961.137 67.2248 958.643 67.2248 955.558C67.2248 952.489 64.7226 949.979 61.6372 949.979C58.5686 949.979 56.0664 952.489 56.0664 955.558C56.0664 958.643 58.5686 961.137 61.6372 961.137Z" fill="#737373"/>
<path fill-rule="evenodd" clip-rule="evenodd" d="M117.525 961.137C120.602 961.137 123.104 958.643 123.104 955.558C123.104 952.489 120.602 949.979 117.525 949.979C114.448 949.979 111.945 952.489 111.945 955.558C111.945 958.643 114.448 961.137 117.525 961.137Z" fill="#737373"/>
<path fill-rule="evenodd" clip-rule="evenodd" d="M173.403 961.137C176.48 961.137 178.983 958.643 178.983 955.558C178.983 952.489 176.48 949.979 173.403 949.979C170.335 949.979 167.824 952.489 167.824 955.558C167.824 958.643 170.335 961.137 173.403 961.137Z" fill="#737373"/>
<path fill-rule="evenodd" clip-rule="evenodd" d="M229.291 961.137C232.359 961.137 234.862 958.643 234.862 955.558C234.862 952.489 232.359 949.979 229.291 949.979C226.214 949.979 223.703 952.489 223.703 955.558C223.703 958.643 226.214 961.137 229.291 961.137Z" fill="#737373"/>
<path fill-rule="evenodd" clip-rule="evenodd" d="M285.169 961.137C288.246 961.137 290.748 958.643 290.748 955.558C290.748 952.489 288.246 949.979 285.169 949.979C282.092 949.979 279.59 952.489 279.59 955.558C279.59 958.643 282.092 961.137 285.169 961.137Z" fill="#737373"/>
<path fill-rule="evenodd" clip-rule="evenodd" d="M5.76344 1017.03C8.832 1017.03 11.3426 1014.53 11.3426 1011.45C11.3426 1008.36 8.832 1005.87 5.76344 1005.87C2.68642 1005.87 0.175781 1008.36 0.175781 1011.45C0.175781 1014.53 2.68642 1017.03 5.76344 1017.03Z" fill="#737373"/>
<path fill-rule="evenodd" clip-rule="evenodd" d="M61.6372 1017.03C64.7226 1017.03 67.2248 1014.53 67.2248 1011.45C67.2248 1008.36 64.7226 1005.87 61.6372 1005.87C58.5686 1005.87 56.0664 1008.36 56.0664 1011.45C56.0664 1014.53 58.5686 1017.03 61.6372 1017.03Z" fill="#737373"/>
<path fill-rule="evenodd" clip-rule="evenodd" d="M117.525 1017.03C120.602 1017.03 123.104 1014.53 123.104 1011.45C123.104 1008.36 120.602 1005.87 117.525 1005.87C114.448 1005.87 111.945 1008.36 111.945 1011.45C111.945 1014.53 114.448 1017.03 117.525 1017.03Z" fill="#737373"/>
<path fill-rule="evenodd" clip-rule="evenodd" d="M173.403 1017.03C176.48 1017.03 178.983 1014.53 178.983 1011.45C178.983 1008.36 176.48 1005.87 173.403 1005.87C170.335 1005.87 167.824 1008.36 167.824 1011.45C167.824 1014.53 170.335 1017.03 173.403 1017.03Z" fill="#737373"/>
<path fill-rule="evenodd" clip-rule="evenodd" d="M229.291 1017.03C232.359 1017.03 234.862 1014.53 234.862 1011.45C234.862 1008.36 232.359 1005.87 229.291 1005.87C226.214 1005.87 223.703 1008.36 223.703 1011.45C223.703 1014.53 226.214 1017.03 229.291 1017.03Z" fill="#737373"/>
<path fill-rule="evenodd" clip-rule="evenodd" d="M285.169 1017.03C288.246 1017.03 290.748 1014.53 290.748 1011.45C290.748 1008.36 288.246 1005.87 285.169 1005.87C282.092 1005.87 279.59 1008.36 279.59 1011.45C279.59 1014.53 282.092 1017.03 285.169 1017.03Z" fill="#737373"/>
</g>
</svg>
